<svg width="84" height="82" viewBox="0 0 84 82" fill="none" xmlns="http://www.w3.org/2000/svg">
<path d="M72.6805 0.224609H11.3193C5.06793 0.224609 0 5.14672 0 11.2186V70.8172C0 76.8891 5.06772 81.8112 11.3193 81.8112H41.5824L41.6339 52.6566H33.8355C32.822 52.6566 31.9995 51.8606 31.9956 50.8763L31.9582 41.4785C31.9543 40.4888 32.7793 39.6845 33.7983 39.6845H41.5826V30.6039C41.5826 20.0659 48.2089 14.3279 57.8875 14.3279H65.8296C66.8457 14.3279 67.6697 15.128 67.6697 16.1152V24.0394C67.6697 25.0261 66.8464 25.8261 65.8306 25.8267L60.9567 25.8289C55.6931 25.8289 54.6739 28.2582 54.6739 31.8233V39.6847H66.2398C67.3418 39.6847 68.1968 40.6193 68.067 41.6823L66.9201 51.0801C66.8104 51.9794 66.0252 52.657 65.0929 52.657H54.7255L54.6739 81.8116H72.681C78.9323 81.8116 84 76.8895 84 70.8178V11.2186C83.9998 5.14672 78.9321 0.224609 72.6805 0.224609Z" fill="white"/>
</svg>
