<svg width="84" height="83" viewBox="0 0 84 83" fill="none" xmlns="http://www.w3.org/2000/svg">
<path d="M58.8749 0.774902H25.1251C11.4089 0.774902 0.25 11.6634 0.25 25.0473V57.9793C0.25 71.3632 11.4089 82.2517 25.1251 82.2517H58.8749C72.5911 82.2517 83.75 71.3632 83.75 57.9793V25.0473C83.7499 11.6634 72.5909 0.774902 58.8749 0.774902ZM75.3499 57.9793C75.3499 66.8577 67.9737 74.0551 58.8749 74.0551H25.1251C16.0263 74.0551 8.6501 66.8577 8.6501 57.9793V25.0473C8.6501 16.1688 16.0263 8.97146 25.1251 8.97146H58.8749C67.9737 8.97146 75.3499 16.1688 75.3499 25.0473V57.9793Z" fill="#828282"/>
<path d="M42.0004 20.4404C30.0923 20.4404 20.4043 29.8937 20.4043 41.5131C20.4043 53.1325 30.0923 62.5859 42.0004 62.5859C53.9085 62.5859 63.5964 53.1326 63.5964 41.5131C63.5964 29.8935 53.9085 20.4404 42.0004 20.4404ZM42.0004 54.3895C34.7124 54.3895 28.8044 48.6246 28.8044 41.5132C28.8044 34.4018 34.7125 28.637 42.0004 28.637C49.2884 28.637 55.1963 34.4018 55.1963 41.5132C55.1963 48.6245 49.2882 54.3895 42.0004 54.3895Z" fill="#828282"/>
<path d="M63.6387 25.6483C66.4966 25.6483 68.8135 23.3876 68.8135 20.5988C68.8135 17.81 66.4966 15.5493 63.6387 15.5493C60.7807 15.5493 58.4639 17.81 58.4639 20.5988C58.4639 23.3876 60.7807 25.6483 63.6387 25.6483Z" fill="#828282"/>
</svg>
