<svg width="74" height="74" viewBox="0 0 74 74" fill="none" xmlns="http://www.w3.org/2000/svg">
<path d="M67.2191 0H6.78092C3.08333 0 0 3.08333 0 6.78092V67.2191C0 70.9167 3.08333 74 6.78092 74H67.2191C70.9167 74 74 70.9167 74 67.2191V6.78092C74 3.08333 70.9167 0 67.2191 0ZM21.5833 61.6667H9.25V27.75H21.5833V61.6667ZM15.4167 23.7393C11.7191 23.7393 9.25 21.2702 9.25 18.1868C9.25 14.8024 11.7191 12.3333 15.4167 12.3333C19.1143 12.3333 21.5833 14.8024 21.5833 17.8857C21.5833 21.2702 19.1143 23.7393 15.4167 23.7393ZM64.75 61.6667H52.4167V43.1667C52.4167 38.2285 49.0202 37 48.1048 37C47.1774 37 43.1667 37.6143 43.1667 43.1667C43.1667 43.7809 43.1667 61.6667 43.1667 61.6667H30.8333V27.75H43.1667V32.6882C45.0215 29.9059 48.1048 27.75 53.9583 27.75C59.8118 27.75 64.75 32.375 64.75 43.1667V61.6667Z" fill="#17A2B8"/>
</svg>
