<svg width="358" height="61" viewBox="0 0 358 61" fill="none" xmlns="http://www.w3.org/2000/svg">
<path d="M82.2946 3.99273V1.44182C82.2946 0.998182 82.4055 0.665455 82.7383 0.443636C82.9601 0.110909 83.2928 0 83.7364 0H100.706C101.149 0 101.482 0.110909 101.704 0.443636C101.926 0.665455 102.036 0.998182 102.036 1.44182V4.32545H104.92C105.364 4.32545 105.696 4.43636 105.918 4.76909C106.251 4.99091 106.362 5.32364 106.362 5.76727V9.53818C106.362 9.98182 106.251 10.3145 105.918 10.5364C105.586 10.7582 105.253 10.98 104.92 10.98H101.149C100.816 10.98 100.484 10.8691 100.151 10.5364C99.9292 10.2036 99.8183 9.87091 99.8183 9.42727V6.87636H85.1783V12.9764H100.706C101.149 12.9764 101.482 13.0873 101.704 13.42C101.926 13.7527 102.147 13.9745 102.147 14.4182V17.3018H105.031C105.475 17.3018 105.807 17.4127 106.029 17.7455C106.362 18.0782 106.473 18.4109 106.473 18.7436V31.3873C106.473 31.72 106.362 32.0527 106.029 32.3855C105.696 32.7182 105.364 32.8291 105.031 32.8291H102.48V35.4909C102.48 35.8236 102.369 36.1564 102.036 36.4891C101.704 36.8218 101.482 36.9327 101.038 36.9327H83.9583C83.5146 36.9327 83.1819 36.8218 82.9601 36.4891C82.7383 36.2673 82.5164 35.9345 82.5164 35.4909V32.6073H79.6328C79.1892 32.6073 78.8564 32.4964 78.6346 32.1636C78.3019 31.8309 78.191 31.6091 78.191 31.1655V27.3945C78.191 27.0618 78.3019 26.7291 78.6346 26.3964C78.9674 26.0636 79.3001 25.9527 79.6328 25.9527H83.4037C83.7364 25.9527 84.0692 26.0636 84.4019 26.3964C84.7346 26.6182 84.8455 26.9509 84.8455 27.3945V30.0564H99.3746V19.7418H83.8473C83.4037 19.7418 83.071 19.6309 82.8492 19.2982C82.6273 18.9655 82.4055 18.7436 82.4055 18.3V15.4164H79.5219C79.0783 15.4164 78.7455 15.3055 78.5237 14.9727C78.191 14.64 78.0801 14.3073 78.0801 13.9745V5.43455C78.0801 5.10182 78.191 4.76909 78.5237 4.43636C78.8564 4.10364 79.1892 3.99273 79.5219 3.99273H82.2946Z" fill="black"/>
<path d="M116.344 0C116.676 0 117.009 0.110909 117.342 0.443636C117.675 0.776364 117.785 1.10909 117.785 1.44182V29.8345H132.315V1.44182C132.315 0.998182 132.425 0.665455 132.758 0.443636C133.091 0.110909 133.424 0 133.756 0H137.749C138.193 0 138.525 0.110909 138.747 0.443636C139.08 0.776364 139.191 1.10909 139.191 1.44182V31.1655C139.191 31.4982 139.08 31.8309 138.747 32.1636C138.415 32.4964 138.082 32.6073 137.749 32.6073H135.198V35.2691C135.198 35.6018 135.087 35.9345 134.755 36.2673C134.422 36.6 134.2 36.7109 133.756 36.7109H116.787C116.344 36.7109 116.011 36.6 115.789 36.2673C115.567 35.9345 115.345 35.7127 115.345 35.2691V32.3855H112.462C112.018 32.3855 111.685 32.2745 111.464 31.9418C111.131 31.6091 111.02 31.3873 111.02 30.9436V1.44182C111.02 0.998182 111.131 0.665455 111.464 0.443636C111.796 0.110909 112.129 0 112.462 0H116.344Z" fill="black"/>
<path d="M163.924 11.4236V13.7527C163.924 14.1964 163.813 14.5291 163.48 14.7509C163.258 15.0836 162.925 15.1945 162.482 15.1945H154.164C153.831 15.1945 153.498 15.0836 153.165 14.7509C152.833 14.4182 152.722 14.0855 152.722 13.7527V11.0909H150.947V35.2691C150.947 35.6018 150.836 35.9345 150.504 36.2673C150.171 36.6 149.838 36.7109 149.505 36.7109H145.513C145.069 36.7109 144.736 36.6 144.514 36.2673C144.182 35.9345 144.071 35.7127 144.071 35.2691V1.44182C144.071 0.998182 144.182 0.665455 144.514 0.443636C144.847 0.110909 145.18 0 145.513 0H149.505C149.949 0 150.282 0.110909 150.504 0.443636C150.836 0.776364 150.947 1.10909 150.947 1.44182V4.10364H153.609C154.053 4.10364 154.385 4.21455 154.607 4.54727C154.829 4.88 155.051 5.10182 155.051 5.54545V8.42909H161.151V5.43455C161.151 5.10182 161.262 4.76909 161.594 4.43636C161.927 4.10364 162.149 3.99273 162.593 3.99273H165.476V1.44182C165.476 0.998182 165.587 0.665455 165.92 0.443636C166.253 0.110909 166.585 0 166.918 0H170.911C171.354 0 171.687 0.110909 171.909 0.443636C172.242 0.776364 172.353 1.10909 172.353 1.44182V35.2691C172.353 35.6018 172.242 35.9345 171.909 36.2673C171.576 36.6 171.244 36.7109 170.911 36.7109H166.918C166.474 36.7109 166.142 36.6 165.92 36.2673C165.587 35.9345 165.476 35.7127 165.476 35.2691V11.4236H163.924Z" fill="black"/>
<path d="M197.196 11.4236V13.7527C197.196 14.1964 197.086 14.5291 196.753 14.7509C196.531 15.0836 196.198 15.1945 195.755 15.1945H187.436C187.104 15.1945 186.771 15.0836 186.438 14.7509C186.106 14.4182 185.995 14.0855 185.995 13.7527V11.0909H184.22V35.2691C184.22 35.6018 184.109 35.9345 183.776 36.2673C183.444 36.6 183.111 36.7109 182.778 36.7109H178.786C178.342 36.7109 178.009 36.6 177.787 36.2673C177.455 35.9345 177.344 35.7127 177.344 35.2691V1.44182C177.344 0.998182 177.455 0.665455 177.787 0.443636C178.12 0.110909 178.453 0 178.786 0H182.778C183.222 0 183.555 0.110909 183.776 0.443636C184.109 0.776364 184.22 1.10909 184.22 1.44182V4.10364H186.882C187.326 4.10364 187.658 4.21455 187.88 4.54727C188.102 4.88 188.324 5.10182 188.324 5.54545V8.42909H194.424V5.43455C194.424 5.10182 194.535 4.76909 194.867 4.43636C195.2 4.10364 195.422 3.99273 195.866 3.99273H198.749V1.44182C198.749 0.998182 198.86 0.665455 199.193 0.443636C199.526 0.110909 199.858 0 200.191 0H204.184C204.627 0 204.96 0.110909 205.182 0.443636C205.515 0.776364 205.626 1.10909 205.626 1.44182V35.2691C205.626 35.6018 205.515 35.9345 205.182 36.2673C204.849 36.6 204.516 36.7109 204.184 36.7109H200.191C199.747 36.7109 199.415 36.6 199.193 36.2673C198.86 35.9345 198.749 35.7127 198.749 35.2691V11.4236H197.196Z" fill="black"/>
<path d="M217.825 29.8345V6.87636H211.171C210.838 6.87636 210.505 6.76545 210.173 6.43273C209.84 6.21091 209.729 5.87818 209.729 5.43455V1.44182C209.729 0.998182 209.84 0.665455 210.173 0.443636C210.505 0.110909 210.727 0 211.171 0H232.133C232.465 0 232.798 0.110909 233.131 0.443636C233.464 0.776364 233.574 1.10909 233.574 1.44182V5.43455C233.574 5.87818 233.464 6.21091 233.131 6.43273C232.798 6.65455 232.576 6.87636 232.133 6.87636H225.478V29.8345H232.133C232.465 29.8345 232.798 29.9455 233.131 30.2782C233.464 30.6109 233.574 30.8327 233.574 31.2764V35.38C233.574 35.7127 233.464 36.0455 233.131 36.3782C232.798 36.7109 232.576 36.8218 232.133 36.8218H211.171C210.838 36.8218 210.505 36.7109 210.173 36.3782C209.84 36.0455 209.729 35.8236 209.729 35.38V31.2764C209.729 30.9436 209.84 30.6109 210.173 30.2782C210.505 29.9455 210.727 29.8345 211.171 29.8345H217.825Z" fill="black"/>
<path d="M237.678 6.87636C237.345 6.87636 237.013 6.76545 236.68 6.43273C236.347 6.21091 236.236 5.87818 236.236 5.43455V1.44182C236.236 0.998182 236.347 0.665455 236.68 0.443636C237.013 0.221818 237.345 0 237.678 0H258.64C258.973 0 259.305 0.110909 259.638 0.443636C259.971 0.776364 260.082 1.10909 260.082 1.44182V5.43455C260.082 5.87818 259.971 6.21091 259.638 6.43273C259.305 6.65455 259.084 6.87636 258.64 6.87636H251.764V35.2691C251.764 35.6018 251.653 35.9345 251.32 36.2673C250.987 36.6 250.765 36.7109 250.322 36.7109H245.996C245.664 36.7109 245.331 36.6 244.998 36.2673C244.665 35.9345 244.555 35.7127 244.555 35.2691V6.87636H237.678Z" fill="black"/>
<path d="M287.032 29.8345V11.3127H285.812V13.6418C285.812 14.0855 285.702 14.4182 285.369 14.64C285.036 14.9727 284.814 15.0836 284.371 15.0836H280.267C279.934 15.0836 279.602 14.9727 279.269 14.64C278.936 14.4182 278.825 13.9745 278.825 13.6418V9.76C278.825 9.31636 278.936 8.98364 279.269 8.76182C279.602 8.42909 279.823 8.31818 280.267 8.31818H282.929V5.43455C282.929 5.10182 283.04 4.76909 283.372 4.43636C283.705 4.10364 283.927 3.99273 284.371 3.99273H287.254V1.44182C287.254 0.998182 287.365 0.665455 287.698 0.443636C288.031 0.110909 288.252 0 288.696 0H293.022C293.354 0 293.687 0.110909 294.02 0.443636C294.352 0.776364 294.463 1.10909 294.463 1.44182V29.8345H301.451C301.783 29.8345 302.116 29.9455 302.449 30.2782C302.782 30.6109 302.892 30.8327 302.892 31.2764V35.38C302.892 35.7127 302.782 36.0455 302.449 36.3782C302.116 36.7109 301.894 36.8218 301.451 36.8218H280.489C280.156 36.8218 279.823 36.7109 279.491 36.3782C279.158 36.0455 279.047 35.8236 279.047 35.38V31.2764C279.047 30.9436 279.158 30.6109 279.491 30.2782C279.823 29.9455 280.045 29.8345 280.489 29.8345H287.032Z" fill="black"/>
<path d="M320.084 25.8418C320.416 25.8418 320.749 25.9527 321.082 26.2854C321.415 26.6182 321.525 26.84 321.525 27.2836V35.2691C321.525 35.6018 321.415 35.9345 321.082 36.2673C320.749 36.6 320.527 36.7109 320.084 36.7109H311.987C311.654 36.7109 311.322 36.6 310.989 36.2673C310.656 35.9345 310.545 35.7127 310.545 35.2691V27.2836C310.545 26.9509 310.656 26.6182 310.989 26.2854C311.322 25.9527 311.544 25.8418 311.987 25.8418H320.084Z" fill="black"/>
<path d="M330.953 32.6073C330.509 32.6073 330.177 32.4964 329.955 32.1636C329.622 31.8309 329.511 31.6091 329.511 31.1655V5.43455C329.511 5.10182 329.622 4.76909 329.955 4.43636C330.288 4.10364 330.62 3.99273 330.953 3.99273H333.615V1.44182C333.615 0.998182 333.726 0.665455 334.059 0.443636C334.391 0.110909 334.613 0 335.057 0H352.359C352.691 0 353.024 0.110909 353.357 0.443636C353.689 0.776364 353.8 1.10909 353.8 1.44182V3.99273H356.351C356.795 3.99273 357.128 4.10364 357.349 4.43636C357.682 4.76909 357.793 4.99091 357.793 5.43455V31.1655C357.793 31.4982 357.682 31.8309 357.349 32.1636C357.017 32.4964 356.684 32.6073 356.351 32.6073H353.8V35.2691C353.8 35.6018 353.689 35.9345 353.357 36.2673C353.024 36.6 352.802 36.7109 352.359 36.7109H334.946C334.613 36.7109 334.28 36.6 333.948 36.2673C333.615 35.9345 333.504 35.7127 333.504 35.2691V32.6073H330.953ZM336.609 25.2873H337.829V18.3C337.829 17.9673 337.94 17.6345 338.273 17.3018C338.495 16.9691 338.828 16.8582 339.271 16.8582H342.155V9.76C342.155 9.31636 342.266 8.98364 342.598 8.76182C342.931 8.42909 343.153 8.31818 343.597 8.31818H346.259V7.09818H336.609V25.2873ZM340.935 29.5018H350.584V11.3127H349.364V18.3C349.364 18.7436 349.253 19.0764 348.92 19.2982C348.699 19.52 348.366 19.7418 347.922 19.7418H345.039V26.9509C345.039 27.2836 344.928 27.6164 344.595 27.9491C344.262 28.2818 344.04 28.3927 343.597 28.3927H340.935V29.5018Z" fill="black"/>
<path fill-rule="evenodd" clip-rule="evenodd" d="M33.827 0C29.1689 0 25.3979 3.77091 25.3979 8.42909C25.3979 13.0873 29.1689 16.8582 33.827 16.8582C38.4852 16.8582 42.2561 13.0873 42.2561 8.42909C42.1452 3.77091 38.4852 0 33.827 0Z" fill="#0C8748"/>
<path fill-rule="evenodd" clip-rule="evenodd" d="M45.4727 32.7182C50.3527 29.0582 55.3436 25.3982 60.2236 21.7382C60.4454 21.5163 60.6672 21.4054 60.889 21.1836C62.4418 19.9636 62.8854 19.6309 63.329 17.6345C64.2163 13.42 62.2199 10.6472 58.5599 9.53815C57.0072 9.09452 55.8981 9.20543 54.4563 9.87088C53.1254 10.5363 51.7945 11.4236 50.5745 12.2C48.7999 13.5309 46.9145 14.8618 45.1399 16.1927C43.9199 17.1909 42.6999 18.0782 41.4799 19.0763C41.0363 19.4091 40.5927 19.7418 40.149 20.0745C38.7072 21.1836 37.9309 22.2927 37.4872 23.6236C36.0454 27.6163 36.5999 32.94 36.5999 37.3763C36.5999 38.2636 36.5999 38.9291 36.8218 39.8163C36.9327 40.26 37.0436 40.8145 37.1545 41.2582C37.0436 40.26 37.4872 39.3727 38.3745 38.2636C40.2599 36.1563 43.2545 34.3818 45.4727 32.7182Z" fill="#91BE3F"/>
<path fill-rule="evenodd" clip-rule="evenodd" d="M57.3402 58.1164C60.6674 55.7874 63.9947 53.5692 67.4329 51.2401C67.4329 50.4637 67.322 49.7983 67.322 49.0219C60.1129 43.5874 52.7929 38.1528 45.5838 32.7183C43.3656 34.3819 40.3711 36.1564 38.5965 38.2637C36.7111 40.5928 37.1547 42.1455 39.262 44.8074C40.8147 46.0274 42.2565 47.4692 43.9202 48.6892C48.0238 51.7946 52.1274 54.9001 56.1202 58.0055C56.4529 58.1164 56.8965 58.1164 57.3402 58.1164Z" fill="#078848"/>
<path fill-rule="evenodd" clip-rule="evenodd" d="M21.849 32.7182C16.969 29.0582 11.9781 25.3982 7.09809 21.7382C6.87627 21.5163 6.65445 21.4054 6.43263 21.1836C4.87991 19.9636 4.43627 19.6309 3.99263 17.6345C3.10536 13.42 5.10172 10.6472 8.76172 9.53815C10.3145 9.09452 11.4235 9.20543 12.8654 9.87088C14.1963 10.5363 15.5272 11.4236 16.7472 12.2C18.5217 13.5309 20.4072 14.8618 22.1817 16.1927C23.4017 17.1909 24.6217 18.0782 25.8417 19.0763C26.2854 19.4091 26.729 19.7418 27.1726 20.0745C28.6145 21.1836 29.3908 22.2927 29.8345 23.6236C31.2763 27.6163 30.7217 32.94 30.7217 37.3763C30.7217 38.2636 30.7217 38.9291 30.4999 39.8163C30.389 40.26 30.2781 40.8145 30.1672 41.2582C30.2781 40.26 29.8345 39.3727 28.9472 38.2636C27.1726 36.1563 24.0672 34.3818 21.849 32.7182Z" fill="#91BE3F"/>
<path fill-rule="evenodd" clip-rule="evenodd" d="M10.0927 58.1164C6.76546 55.7874 3.43818 53.5692 0 51.2401C0 50.4637 0.110909 49.7983 0.110909 49.0219C7.32 43.5874 14.64 38.1528 21.8491 32.7183C24.0673 34.3819 27.0618 36.1564 28.8364 38.2637C30.7218 40.5928 30.2782 42.1455 28.1709 44.8074C26.6182 46.0274 25.1764 47.4692 23.5127 48.6892C19.4091 51.7946 15.3055 54.9001 11.3127 58.0055C10.98 58.1164 10.5364 58.1164 10.0927 58.1164Z" fill="#078848"/>
<path d="M78.3018 54.7888L79.6327 54.6778C79.7436 55.2324 79.8545 55.676 80.0763 56.0088C80.2981 56.3415 80.6308 56.5633 81.0745 56.7851C81.5181 57.0069 82.0727 57.1178 82.6272 57.1178C83.1818 57.1178 83.6254 57.0069 84.069 56.896C84.5127 56.7851 84.7345 56.5633 84.9563 56.2306C85.1781 56.0088 85.289 55.676 85.289 55.3433C85.289 55.0106 85.1781 54.6778 84.9563 54.456C84.7345 54.2342 84.4018 54.0124 84.069 53.7906C83.7363 53.6797 83.1818 53.4578 82.1836 53.236C81.1854 53.0142 80.5199 52.7924 80.1872 52.5706C79.6327 52.3488 79.2999 52.016 79.0781 51.5724C78.8563 51.2397 78.7454 50.796 78.7454 50.2415C78.7454 49.6869 78.8563 49.2433 79.189 48.7997C79.5218 48.356 79.9654 48.0233 80.5199 47.8015C81.0745 47.5797 81.7399 47.4688 82.4054 47.4688C83.1818 47.4688 83.8472 47.5797 84.4018 47.8015C84.9563 48.0233 85.3999 48.4669 85.7327 48.9106C86.0654 49.3542 86.1763 49.9087 86.2872 50.5742L84.9563 50.6851C84.8454 50.0197 84.6236 49.576 84.1799 49.1324C83.7363 48.7997 83.1818 48.5778 82.4054 48.5778C81.5181 48.5778 80.9636 48.6888 80.6308 49.0215C80.2981 49.3542 80.0763 49.6869 80.0763 50.1306C80.0763 50.4633 80.1872 50.796 80.5199 51.0178C80.7418 51.2397 81.5181 51.4615 82.6272 51.7942C83.7363 52.1269 84.5127 52.2378 84.9563 52.4597C85.5108 52.7924 86.0654 53.1251 86.2872 53.5687C86.6199 54.0124 86.7308 54.456 86.7308 55.0106C86.7308 55.5651 86.6199 56.1197 86.2872 56.5633C85.9545 57.0069 85.5108 57.4506 84.9563 57.6724C84.4018 57.8942 83.7363 58.116 82.9599 58.116C81.9618 58.116 81.1854 58.0051 80.6308 57.6724C79.9654 57.4506 79.5218 57.0069 79.0781 56.4524C78.5236 56.0088 78.3018 55.4542 78.3018 54.7888Z" fill="black"/>
<path d="M93.4967 55.6762L94.8276 55.7872C94.6058 56.5635 94.2731 57.1181 93.7185 57.5617C93.164 58.0053 92.3876 58.2272 91.5003 58.2272C90.3912 58.2272 89.504 57.8944 88.8385 57.229C88.1731 56.5635 87.8403 55.5653 87.8403 54.3453C87.8403 53.1253 88.1731 52.1272 88.8385 51.3508C89.504 50.6853 90.3912 50.2417 91.3894 50.2417C92.3876 50.2417 93.2749 50.5744 93.8294 51.2399C94.4949 51.9053 94.8276 52.9035 94.8276 54.1235C94.8276 54.2344 94.8276 54.3453 94.8276 54.4562H89.1712C89.1712 55.3435 89.504 55.8981 89.8367 56.3417C90.2803 56.7853 90.8349 57.0072 91.3894 57.0072C91.8331 57.0072 92.2767 56.8962 92.6094 56.6744C92.9422 56.4526 93.2749 56.2308 93.4967 55.6762ZM89.2822 53.569H93.4967C93.3858 52.9035 93.2749 52.4599 93.0531 52.1272C92.6094 51.6835 92.1658 51.3508 91.5003 51.3508C90.9458 51.3508 90.3912 51.5726 90.0585 51.9053C89.504 52.349 89.2822 52.9035 89.2822 53.569Z" fill="black"/>
<path d="M96.3799 58.1162V50.5744H97.489V51.6834C97.8217 51.1289 98.0435 50.7962 98.2653 50.5744C98.4872 50.3525 98.8199 50.3525 99.0417 50.3525C99.4853 50.3525 99.929 50.4634 100.373 50.7962L99.929 52.0162C99.5962 51.7944 99.2635 51.6834 99.0417 51.6834C98.709 51.6834 98.4872 51.7944 98.2653 51.9053C98.0435 52.1271 97.9326 52.3489 97.8217 52.5707C97.7108 53.0144 97.5999 53.5689 97.5999 54.1234V58.1162H96.3799Z" fill="black"/>
<path d="M103.368 58.116L100.484 50.5742H101.815L103.478 55.1215C103.7 55.5651 103.811 56.1197 103.922 56.6742C104.033 56.2306 104.144 55.7869 104.366 55.2324L106.029 50.5742H107.36L104.477 58.116H103.368Z" fill="black"/>
<path d="M108.58 49.1327V47.6909H109.911V49.1327H108.58ZM108.58 58.1164V50.5746H109.911V58.1164H108.58Z" fill="black"/>
<path d="M116.788 55.3439L118.008 55.4548C117.897 56.342 117.564 57.0075 116.899 57.4511C116.344 57.8948 115.679 58.2275 114.791 58.2275C113.793 58.2275 112.906 57.8948 112.24 57.2293C111.575 56.5639 111.242 55.5657 111.242 54.3457C111.242 53.5693 111.353 52.793 111.686 52.2384C111.908 51.573 112.351 51.1293 112.906 50.9075C113.46 50.5748 114.015 50.4639 114.68 50.4639C115.457 50.4639 116.122 50.6857 116.677 51.1293C117.231 51.573 117.564 52.1275 117.675 52.9039L116.455 53.1257C116.344 52.5711 116.122 52.2384 115.789 52.0166C115.457 51.7948 115.124 51.6839 114.68 51.6839C114.015 51.6839 113.46 51.9057 113.128 52.3493C112.795 52.793 112.573 53.5693 112.573 54.5675C112.573 55.5657 112.795 56.3421 113.128 56.7857C113.571 57.2293 114.015 57.4511 114.68 57.4511C115.235 57.4511 115.568 57.3402 115.9 57.0075C116.455 56.453 116.677 56.0093 116.788 55.3439ZM113.793 59.0039L114.126 57.7839H115.124L114.902 58.5602C115.346 58.5602 115.568 58.782 115.789 58.893C116.011 59.1148 116.122 59.3366 116.122 59.5584C116.122 59.8911 115.9 60.2239 115.568 60.5566C115.235 60.7784 114.68 61.0002 114.015 61.0002C113.571 61.0002 113.239 61.0002 113.017 60.8893L113.128 60.002C113.46 60.002 113.682 60.002 113.793 60.002C114.237 60.002 114.569 59.8911 114.68 59.7802C114.791 59.6693 114.902 59.5584 114.902 59.4475C114.902 59.3366 114.902 59.3366 114.791 59.2257C114.791 59.1148 114.68 59.1148 114.459 59.0039C114.237 58.893 114.126 59.0039 113.793 59.0039Z" fill="black"/>
<path d="M118.673 54.3453C118.673 52.9034 119.116 51.9053 119.893 51.2398C120.558 50.6853 121.335 50.3525 122.222 50.3525C123.22 50.3525 124.107 50.6853 124.773 51.3507C125.438 52.0162 125.771 53.0144 125.771 54.1234C125.771 55.1216 125.66 55.898 125.327 56.4525C124.995 57.0071 124.662 57.4507 123.996 57.7834C123.331 58.1162 122.776 58.2271 122.222 58.2271C121.113 58.2271 120.336 57.8944 119.671 57.2289C119.006 56.5634 118.673 55.5653 118.673 54.3453ZM120.004 54.3453C120.004 55.3434 120.226 56.0089 120.669 56.5634C121.113 57.0071 121.667 57.3398 122.222 57.3398C122.887 57.3398 123.442 57.118 123.775 56.5634C124.218 56.1198 124.44 55.3434 124.44 54.3453C124.44 53.458 124.218 52.6816 123.775 52.238C123.331 51.7944 122.776 51.4616 122.222 51.4616C121.556 51.4616 121.002 51.6834 120.669 52.1271C120.226 52.5707 120.004 53.3471 120.004 54.3453Z" fill="black"/>
<path d="M136.196 58.1164V57.1182C135.753 57.8946 134.976 58.2273 134.089 58.2273C133.534 58.2273 132.98 58.0055 132.425 57.6727C131.871 57.34 131.538 56.8964 131.205 56.2309C130.873 55.5655 130.873 55.1218 130.873 54.3455C130.873 53.5691 130.983 52.9036 131.205 52.2382C131.427 51.5727 131.871 51.1291 132.314 50.7964C132.758 50.4636 133.423 50.3527 133.978 50.3527C134.422 50.3527 134.865 50.4636 135.198 50.6855C135.531 50.9073 135.863 51.1291 136.085 51.4618V47.6909H137.416V58.1164H136.196ZM132.203 54.3455C132.203 55.3436 132.425 56.0091 132.869 56.5636C133.313 57.0073 133.756 57.2291 134.311 57.2291C134.865 57.2291 135.309 57.0073 135.753 56.5636C136.196 56.12 136.307 55.4546 136.307 54.4564C136.307 53.4582 136.085 52.6818 135.753 52.1273C135.309 51.6836 134.865 51.3509 134.311 51.3509C133.756 51.3509 133.313 51.5727 132.869 52.0164C132.425 52.5709 132.203 53.3473 132.203 54.3455Z" fill="black"/>
<path d="M144.626 55.6762L145.957 55.7872C145.735 56.5635 145.402 57.1181 144.847 57.5617C144.293 58.0053 143.517 58.2272 142.629 58.2272C141.52 58.2272 140.633 57.8944 139.967 57.229C139.302 56.5635 138.969 55.5653 138.969 54.3453C138.969 53.1253 139.302 52.1272 139.967 51.3508C140.633 50.6853 141.52 50.2417 142.518 50.2417C143.517 50.2417 144.404 50.5744 144.958 51.2399C145.624 51.9053 145.957 52.9035 145.957 54.1235C145.957 54.2344 145.957 54.3453 145.957 54.4562H140.3C140.3 55.3435 140.633 55.8981 140.966 56.3417C141.409 56.7853 141.964 57.0072 142.518 57.0072C142.962 57.0072 143.406 56.8962 143.738 56.6744C144.071 56.4526 144.404 56.2308 144.626 55.6762ZM140.411 53.569H144.626C144.515 52.9035 144.404 52.4599 144.182 52.1272C143.738 51.6835 143.295 51.3508 142.629 51.3508C142.075 51.3508 141.52 51.5726 141.187 51.9053C140.744 52.349 140.522 52.9035 140.411 53.569Z" fill="black"/>
<path d="M151.834 58.1164V47.6909H158.933V48.9109H153.276V52.1273H158.156V53.3473H153.276V58.1164H151.834Z" fill="black"/>
<path d="M160.042 54.3453C160.042 52.9034 160.486 51.9053 161.262 51.2398C161.927 50.6853 162.704 50.3525 163.591 50.3525C164.589 50.3525 165.477 50.6853 166.142 51.3507C166.807 52.0162 167.14 53.0144 167.14 54.1234C167.14 55.1216 167.029 55.898 166.697 56.4525C166.364 57.0071 166.031 57.4507 165.366 57.7834C164.7 58.1162 164.146 58.2271 163.591 58.2271C162.482 58.2271 161.706 57.8944 161.04 57.2289C160.375 56.5634 160.042 55.5653 160.042 54.3453ZM161.373 54.3453C161.373 55.3434 161.595 56.0089 162.038 56.5634C162.482 57.118 163.037 57.3398 163.591 57.3398C164.257 57.3398 164.811 57.118 165.144 56.5634C165.587 56.1198 165.809 55.3434 165.809 54.3453C165.809 53.458 165.587 52.6816 165.144 52.238C164.7 51.7944 164.146 51.4616 163.591 51.4616C162.926 51.4616 162.371 51.6834 162.038 52.1271C161.595 52.5707 161.373 53.3471 161.373 54.3453Z" fill="black"/>
<path d="M168.693 58.1162V50.5744H169.802V51.6834C170.135 51.1289 170.357 50.7962 170.578 50.5744C170.8 50.3525 171.133 50.3525 171.355 50.3525C171.798 50.3525 172.242 50.4634 172.686 50.7962L172.242 52.0162C171.909 51.7944 171.577 51.6834 171.355 51.6834C171.022 51.6834 170.8 51.7944 170.578 51.9053C170.357 52.1271 170.246 52.3489 170.135 52.5707C170.024 53.0144 169.913 53.5689 169.913 54.1234V58.1162H168.693Z" fill="black"/>
<path d="M173.573 58.1166V50.5748H174.682V51.6839C174.904 51.3511 175.236 51.0184 175.68 50.7966C176.124 50.5748 176.567 50.4639 177.011 50.4639C177.565 50.4639 178.009 50.5748 178.342 50.7966C178.675 51.0184 179.007 51.3511 179.118 51.7948C179.673 50.9075 180.449 50.4639 181.447 50.4639C182.224 50.4639 182.778 50.6857 183.222 51.1293C183.665 51.573 183.776 52.2384 183.776 53.0148V58.2275H182.445V53.4584C182.445 52.9039 182.445 52.5711 182.335 52.3493C182.224 52.1275 182.113 51.9057 181.891 51.7948C181.669 51.6839 181.447 51.573 181.115 51.573C180.56 51.573 180.116 51.7948 179.784 52.1275C179.451 52.4602 179.229 53.0148 179.229 53.7911V58.2275H177.898V53.3475C177.898 52.793 177.787 52.3493 177.565 52.0166C177.344 51.6839 177.011 51.573 176.567 51.573C176.235 51.573 175.902 51.6839 175.569 51.9057C175.236 52.1275 175.015 52.3493 174.904 52.793C174.793 53.1257 174.682 53.6802 174.682 54.3457V58.2275H173.573V58.1166Z" fill="black"/>
<path d="M190.653 57.1181C190.209 57.5617 189.765 57.7835 189.322 58.0053C188.878 58.2272 188.435 58.2272 187.88 58.2272C186.993 58.2272 186.438 58.0053 185.995 57.6726C185.551 57.3399 185.329 56.7853 185.329 56.1199C185.329 55.7872 185.44 55.4544 185.551 55.1217C185.662 54.789 185.995 54.5672 186.216 54.3453C186.438 54.1235 186.771 54.0126 187.104 53.9017C187.325 53.7908 187.769 53.7908 188.213 53.6799C189.211 53.569 189.987 53.4581 190.542 53.2362C190.542 53.0144 190.542 52.9035 190.542 52.9035C190.542 52.349 190.431 52.0162 190.209 51.7944C189.876 51.4617 189.433 51.3508 188.767 51.3508C188.213 51.3508 187.769 51.4617 187.436 51.6835C187.104 51.9053 186.882 52.2381 186.771 52.7926L185.551 52.5708C185.662 52.0162 185.884 51.5726 186.105 51.2399C186.327 50.9072 186.771 50.6853 187.215 50.4635C187.658 50.2417 188.324 50.2417 188.878 50.2417C189.544 50.2417 190.098 50.3526 190.431 50.4635C190.875 50.5744 191.096 50.7962 191.318 51.0181C191.54 51.2399 191.651 51.5726 191.762 51.9053C191.762 52.1272 191.873 52.5708 191.873 53.1253V54.789C191.873 56.009 191.873 56.7853 191.984 57.0072C191.984 57.3399 192.095 57.6726 192.316 57.8944H190.985C190.764 57.7835 190.653 57.5617 190.653 57.1181ZM190.542 54.3453C190.098 54.5672 189.322 54.6781 188.435 54.789C187.88 54.8999 187.547 54.8999 187.325 55.0108C187.104 55.1217 186.993 55.2326 186.771 55.4544C186.66 55.6762 186.549 55.7872 186.549 56.009C186.549 56.3417 186.66 56.6744 186.993 56.8962C187.215 57.1181 187.658 57.229 188.102 57.229C188.545 57.229 188.989 57.1181 189.433 56.8962C189.765 56.6744 190.098 56.3417 190.32 56.009C190.431 55.6762 190.542 55.3435 190.542 54.6781V54.3453Z" fill="black"/>
<path d="M198.75 55.3439L199.97 55.4548C199.859 56.342 199.526 57.0075 198.86 57.4511C198.195 57.8948 197.64 58.2275 196.753 58.2275C195.755 58.2275 194.868 57.8948 194.202 57.2293C193.537 56.5639 193.204 55.5657 193.204 54.3457C193.204 53.5693 193.315 52.793 193.648 52.2384C193.87 51.573 194.313 51.1293 194.868 50.9075C195.422 50.5748 195.977 50.4639 196.642 50.4639C197.419 50.4639 198.084 50.6857 198.639 51.1293C199.193 51.573 199.526 52.1275 199.637 52.9039L198.417 53.1257C198.306 52.5711 198.084 52.2384 197.751 52.0166C197.419 51.7948 197.086 51.6839 196.642 51.6839C195.977 51.6839 195.422 51.9057 195.09 52.3493C194.757 52.793 194.535 53.5693 194.535 54.5675C194.535 55.5657 194.757 56.3421 195.09 56.7857C195.533 57.2293 195.977 57.4511 196.642 57.4511C197.197 57.4511 197.53 57.3402 197.862 57.0075C198.528 56.453 198.75 56.0093 198.75 55.3439ZM195.866 59.0039L196.199 57.7839H197.197L196.975 58.5602C197.419 58.5602 197.64 58.782 197.862 58.893C198.084 59.1148 198.195 59.3366 198.195 59.5584C198.195 59.8911 197.973 60.2239 197.64 60.5566C197.308 60.8893 196.753 61.0002 196.088 61.0002C195.644 61.0002 195.311 61.0002 195.09 60.8893L195.2 60.002C195.533 60.002 195.755 60.002 195.866 60.002C196.31 60.002 196.642 59.8911 196.753 59.7802C196.864 59.6693 196.975 59.5584 196.975 59.4475C196.975 59.3366 196.975 59.3366 196.864 59.2257C196.864 59.1148 196.753 59.1148 196.531 59.0039C196.42 59.1148 196.199 59.0039 195.866 59.0039Z" fill="black"/>
<path d="M206.069 57.1182C205.626 57.5618 205.182 57.7836 204.738 58.0055C204.295 58.2273 203.851 58.2273 203.297 58.2273C202.409 58.2273 201.855 58.0055 201.411 57.6727C200.967 57.34 200.746 56.7855 200.746 56.12C200.746 55.7873 200.857 55.4546 200.967 55.1218C201.078 54.7891 201.411 54.5673 201.633 54.3455C201.855 54.1236 202.187 54.0127 202.52 53.9018C202.742 53.7909 203.186 53.7909 203.629 53.68C204.627 53.5691 205.404 53.4582 205.958 53.2364C205.958 53.0146 205.958 52.9036 205.958 52.9036C205.958 52.3491 205.847 52.0164 205.626 51.7946C205.293 51.4618 204.849 51.3509 204.184 51.3509C203.629 51.3509 203.186 51.4618 202.853 51.6836C202.52 51.9055 202.298 52.2382 202.187 52.7927L200.967 52.5709C201.078 52.0164 201.3 51.5727 201.522 51.24C201.744 50.9073 202.187 50.6855 202.631 50.4636C203.075 50.2418 203.74 50.2418 204.295 50.2418C204.96 50.2418 205.515 50.3527 205.847 50.4636C206.291 50.5746 206.513 50.7964 206.735 51.0182C206.957 51.24 207.067 51.5727 207.178 51.9055C207.178 52.1273 207.289 52.5709 207.289 53.1255V54.7891C207.289 56.0091 207.289 56.7855 207.4 57.0073C207.4 57.34 207.511 57.6727 207.733 57.8946H206.402C206.18 57.7836 206.18 57.5618 206.069 57.1182ZM201.855 49.3546C201.855 48.9109 201.966 48.4673 202.298 48.1346C202.52 47.8018 202.964 47.6909 203.297 47.6909C203.629 47.6909 203.962 47.8018 204.517 48.0236C204.849 48.1346 205.071 48.2455 205.182 48.2455C205.293 48.2455 205.404 48.2455 205.515 48.1346C205.626 48.0236 205.626 47.9127 205.737 47.6909H206.624C206.624 48.2455 206.513 48.6891 206.18 48.9109C205.958 49.1327 205.626 49.3546 205.182 49.3546C204.849 49.3546 204.517 49.2436 203.962 48.9109C203.629 48.6891 203.407 48.6891 203.297 48.6891C203.186 48.6891 202.964 48.8 202.853 48.9109C202.742 49.0218 202.742 49.2436 202.742 49.4655H201.855V49.3546ZM205.958 54.3455C205.515 54.5673 204.738 54.6782 203.851 54.7891C203.297 54.9 202.964 54.9 202.742 55.0109C202.52 55.1218 202.409 55.2327 202.187 55.4546C202.077 55.6764 201.966 55.7873 201.966 56.0091C201.966 56.3418 202.077 56.6746 202.409 56.8964C202.631 57.1182 203.075 57.2291 203.518 57.2291C203.962 57.2291 204.406 57.1182 204.849 56.8964C205.182 56.6746 205.515 56.3418 205.737 56.0091C205.847 55.6764 205.958 55.3436 205.958 54.6782V54.3455Z" fill="black"/>
<path d="M208.842 54.3453C208.842 52.9034 209.286 51.9053 210.062 51.2398C210.728 50.6853 211.504 50.3525 212.391 50.3525C213.39 50.3525 214.277 50.6853 214.942 51.3507C215.608 52.0162 215.94 53.0144 215.94 54.1234C215.94 55.1216 215.83 55.898 215.497 56.4525C215.164 57.0071 214.831 57.4507 214.166 57.7834C213.611 58.1162 212.946 58.2271 212.391 58.2271C211.282 58.2271 210.506 57.8944 209.84 57.2289C209.175 56.5634 208.842 55.5653 208.842 54.3453ZM210.062 54.3453C210.062 55.3434 210.284 56.0089 210.728 56.5634C211.171 57.118 211.726 57.3398 212.28 57.3398C212.946 57.3398 213.5 57.118 213.833 56.5634C214.166 56.0089 214.499 55.3434 214.499 54.3453C214.499 53.458 214.277 52.6816 213.833 52.238C213.39 51.7944 212.835 51.4616 212.28 51.4616C211.615 51.4616 211.06 51.6834 210.728 52.1271C210.284 52.5707 210.062 53.3471 210.062 54.3453Z" fill="black"/>
<path d="M226.366 58.1164V57.1182C225.922 57.8946 225.146 58.2273 224.258 58.2273C223.704 58.2273 223.149 58.0055 222.595 57.6727C222.04 57.34 221.708 56.8964 221.375 56.2309C221.042 55.5655 220.931 54.9 220.931 54.1236C220.931 53.3473 221.042 52.6818 221.264 52.0164C221.486 51.3509 221.929 50.9073 222.373 50.5746C222.928 50.2418 223.482 50.1309 224.037 50.1309C224.48 50.1309 224.924 50.2418 225.257 50.4636C225.589 50.6855 225.922 50.9073 226.144 51.24V47.6909H227.475V58.1164H226.366ZM222.262 54.3455C222.262 55.3436 222.484 56.0091 222.928 56.5636C223.371 57.0073 223.815 57.2291 224.369 57.2291C224.924 57.2291 225.368 57.0073 225.811 56.5636C226.255 56.12 226.366 55.4546 226.366 54.4564C226.366 53.4582 226.144 52.6818 225.811 52.1273C225.368 51.6836 224.924 51.3509 224.369 51.3509C223.815 51.3509 223.371 51.5727 222.928 52.0164C222.484 52.5709 222.262 53.3473 222.262 54.3455Z" fill="black"/>
<path d="M234.795 55.6762L236.125 55.7872C235.904 56.5635 235.571 57.1181 235.016 57.5617C234.462 58.0053 233.685 58.2272 232.798 58.2272C231.689 58.2272 230.802 57.8944 230.136 57.229C229.471 56.5635 229.138 55.5653 229.138 54.3453C229.138 53.1253 229.471 52.1272 230.136 51.3508C230.802 50.6853 231.689 50.2417 232.687 50.2417C233.685 50.2417 234.573 50.5744 235.127 51.2399C235.793 51.9053 236.125 52.9035 236.125 54.1235C236.125 54.2344 236.125 54.3453 236.125 54.4562H230.469C230.469 55.3435 230.802 55.8981 231.135 56.3417C231.578 56.7853 232.133 57.0072 232.687 57.0072C233.131 57.0072 233.575 56.8962 233.907 56.6744C234.24 56.4526 234.573 56.2308 234.795 55.6762ZM230.58 53.569H234.795C234.684 52.9035 234.573 52.4599 234.351 52.1272C233.907 51.6835 233.464 51.3508 232.798 51.3508C232.244 51.3508 231.689 51.5726 231.356 51.9053C231.024 52.2381 230.58 52.9035 230.58 53.569Z" fill="black"/>
<path d="M244.887 58.1164L240.784 47.6909H242.336L245.109 55.2327C245.331 55.7873 245.553 56.4527 245.664 56.8964C245.775 56.3418 245.996 55.7873 246.218 55.2327L248.991 47.6909H250.433L246.329 58.1164H244.887Z" fill="black"/>
<path d="M251.209 49.1327V47.6909H252.54V49.1327H251.209ZM251.209 58.1164V50.5746H252.54V58.1164H251.209Z" fill="black"/>
<path d="M254.425 58.1164V47.6909H255.756V58.1164H254.425Z" fill="black"/>
<path d="M262.633 57.1181C262.189 57.5617 261.745 57.7835 261.302 58.0053C260.858 58.2272 260.415 58.2272 259.86 58.2272C258.973 58.2272 258.418 58.0053 257.975 57.6726C257.531 57.229 257.309 56.7853 257.309 56.1199C257.309 55.7872 257.42 55.4544 257.531 55.1217C257.753 54.789 257.975 54.5672 258.196 54.3453C258.418 54.1235 258.751 54.0126 259.084 53.9017C259.305 53.7908 259.749 53.7908 260.193 53.6799C261.191 53.569 261.967 53.4581 262.522 53.2362C262.522 53.0144 262.522 52.9035 262.522 52.9035C262.522 52.349 262.411 52.0162 262.189 51.7944C261.856 51.4617 261.413 51.3508 260.747 51.3508C260.193 51.3508 259.749 51.4617 259.416 51.6835C259.084 51.9053 258.862 52.2381 258.751 52.7926L257.531 52.5708C257.642 52.0162 257.864 51.5726 258.085 51.2399C258.307 50.9072 258.751 50.6853 259.195 50.4635C259.638 50.2417 260.304 50.2417 260.858 50.2417C261.524 50.2417 262.078 50.3526 262.411 50.4635C262.855 50.5744 263.076 50.7962 263.298 51.0181C263.52 51.2399 263.631 51.5726 263.742 51.9053C263.742 52.1272 263.853 52.5708 263.853 53.1253V54.789C263.853 56.009 263.853 56.7853 263.964 57.0072C263.964 57.3399 264.075 57.6726 264.296 57.8944H262.965C262.855 57.7835 262.744 57.5617 262.633 57.1181ZM262.522 54.3453C262.078 54.5672 261.302 54.6781 260.415 54.789C259.86 54.8999 259.527 54.8999 259.305 55.0108C259.084 55.1217 258.973 55.2326 258.751 55.4544C258.64 55.6762 258.529 55.7872 258.529 56.009C258.529 56.3417 258.64 56.6744 258.973 56.8962C259.195 57.1181 259.638 57.229 260.082 57.229C260.525 57.229 260.969 57.1181 261.413 56.8962C261.745 56.6744 262.078 56.3417 262.3 56.009C262.411 55.6762 262.522 55.3435 262.522 54.6781V54.3453Z" fill="black"/>
<path d="M270.063 58.1164V47.6909H271.505L277.051 55.8982V47.6909H278.382V58.1164H276.94L271.394 49.9091V58.1164H270.063Z" fill="black"/>
<path d="M279.935 54.3453C279.935 52.9034 280.378 51.9053 281.155 51.2398C281.82 50.6853 282.596 50.3525 283.484 50.3525C284.482 50.3525 285.369 50.6853 286.035 51.3507C286.7 52.0162 287.033 53.0144 287.033 54.1234C287.033 55.1216 286.922 55.898 286.589 56.4525C286.256 57.0071 285.924 57.4507 285.258 57.7834C284.704 58.1162 284.038 58.2271 283.484 58.2271C282.375 58.2271 281.598 57.8944 280.933 57.2289C280.267 56.5634 279.935 55.5653 279.935 54.3453ZM281.265 54.3453C281.265 55.3434 281.487 56.0089 281.931 56.5634C282.375 57.0071 282.929 57.3398 283.484 57.3398C284.149 57.3398 284.704 57.118 285.036 56.5634C285.369 56.0089 285.702 55.3434 285.702 54.3453C285.702 53.458 285.48 52.6816 285.036 52.238C284.593 51.7944 284.038 51.4616 283.484 51.4616C282.818 51.4616 282.264 51.6834 281.931 52.1271C281.487 52.5707 281.265 53.3471 281.265 54.3453Z" fill="black"/>
<path d="M290.693 58.116L287.809 50.5742H289.14L290.804 55.1215C291.025 55.5651 291.136 56.1197 291.247 56.6742C291.358 56.2306 291.469 55.7869 291.691 55.2324L293.355 50.5742H294.685L291.802 58.116H290.693Z" fill="black"/>
<path d="M300.786 57.1181C300.342 57.5617 299.898 57.7835 299.455 58.0053C299.011 58.2272 298.567 58.2272 298.013 58.2272C297.126 58.2272 296.571 58.0053 296.127 57.6726C295.684 57.229 295.462 56.7853 295.462 56.1199C295.462 55.7872 295.573 55.4544 295.684 55.1217C295.906 54.789 296.127 54.5672 296.349 54.3453C296.571 54.1235 296.904 54.0126 297.236 53.9017C297.458 53.7908 297.902 53.7908 298.346 53.6799C299.344 53.569 300.12 53.4581 300.675 53.2362C300.675 53.0144 300.675 52.9035 300.675 52.9035C300.675 52.349 300.564 52.0162 300.342 51.7944C300.009 51.4617 299.566 51.3508 298.9 51.3508C298.346 51.3508 297.902 51.4617 297.569 51.6835C297.236 51.9053 297.015 52.2381 296.904 52.7926L295.684 52.5708C295.795 52.0162 296.016 51.5726 296.238 51.2399C296.46 50.9072 296.904 50.6853 297.347 50.4635C297.791 50.2417 298.456 50.2417 299.011 50.2417C299.676 50.2417 300.231 50.3526 300.564 50.4635C301.007 50.5744 301.229 50.7962 301.451 51.0181C301.673 51.2399 301.784 51.5726 301.895 51.9053C301.895 52.1272 302.006 52.5708 302.006 53.1253V54.789C302.006 56.009 302.006 56.7853 302.116 57.0072C302.116 57.3399 302.227 57.6726 302.449 57.8944H301.118C301.007 57.7835 300.896 57.5617 300.786 57.1181ZM300.786 54.3453C300.342 54.5672 299.566 54.6781 298.678 54.789C298.124 54.8999 297.791 54.8999 297.569 55.0108C297.347 55.1217 297.236 55.2326 297.015 55.4544C296.904 55.6762 296.793 55.7872 296.793 56.009C296.793 56.3417 296.904 56.6744 297.236 56.8962C297.458 57.1181 297.902 57.229 298.346 57.229C298.789 57.229 299.233 57.1181 299.676 56.8962C300.009 56.6744 300.342 56.3417 300.564 56.009C300.675 55.6762 300.786 55.3435 300.786 54.6781V54.3453Z" fill="black"/>
<path d="M312.986 58.1164V57.1182C312.542 57.8946 311.766 58.2273 310.879 58.2273C310.324 58.2273 309.769 58.0055 309.215 57.6727C308.66 57.34 308.328 56.8964 307.995 56.2309C307.662 55.5655 307.551 54.9 307.551 54.1236C307.551 53.3473 307.662 52.6818 307.884 52.0164C308.106 51.3509 308.549 50.9073 308.993 50.5746C309.548 50.2418 310.102 50.1309 310.657 50.1309C311.1 50.1309 311.544 50.2418 311.877 50.4636C312.209 50.6855 312.542 50.9073 312.764 51.24V47.6909H314.095V58.1164H312.986ZM308.882 54.3455C308.882 55.3436 309.104 56.0091 309.548 56.5636C309.991 57.0073 310.435 57.2291 310.989 57.2291C311.544 57.2291 311.988 57.0073 312.431 56.5636C312.875 56.12 312.986 55.4546 312.986 54.4564C312.986 53.4582 312.764 52.6818 312.431 52.1273C311.988 51.6836 311.544 51.3509 310.989 51.3509C310.435 51.3509 309.991 51.5727 309.548 52.0164C309.104 52.5709 308.882 53.3473 308.882 54.3455Z" fill="black"/>
<path d="M321.415 55.6762L322.746 55.7872C322.524 56.5635 322.191 57.1181 321.636 57.5617C321.082 58.0053 320.306 58.2272 319.418 58.2272C318.309 58.2272 317.422 57.8944 316.756 57.229C316.091 56.5635 315.758 55.5653 315.758 54.3453C315.758 53.1253 316.091 52.1272 316.756 51.3508C317.422 50.6853 318.309 50.2417 319.307 50.2417C320.306 50.2417 321.193 50.5744 321.747 51.2399C322.413 51.9053 322.746 52.9035 322.746 54.1235C322.746 54.2344 322.746 54.3453 322.746 54.4562H317.089C317.089 55.3435 317.422 55.8981 317.755 56.3417C318.198 56.7853 318.753 57.0072 319.307 57.0072C319.751 57.0072 320.195 56.8962 320.527 56.6744C320.971 56.5635 321.193 56.2308 321.415 55.6762ZM317.2 53.569H321.415C321.304 52.9035 321.193 52.4599 320.971 52.1272C320.527 51.6835 320.084 51.3508 319.418 51.3508C318.864 51.3508 318.309 51.5726 317.976 51.9053C317.422 52.349 317.2 52.9035 317.2 53.569Z" fill="black"/>
<path d="M333.392 54.0124V52.7924H337.829V56.6742C337.163 57.2287 336.498 57.6724 335.722 57.8942C334.945 58.116 334.28 58.3378 333.503 58.3378C332.505 58.3378 331.507 58.116 330.731 57.6724C329.843 57.2288 329.289 56.5633 328.845 55.7869C328.402 54.8997 328.18 54.0124 328.18 53.0142C328.18 52.016 328.402 51.0178 328.845 50.1306C329.289 49.2433 329.843 48.5778 330.731 48.1342C331.618 47.6906 332.394 47.4688 333.503 47.4688C334.28 47.4688 334.945 47.5797 335.5 47.8015C336.165 48.0233 336.609 48.356 336.941 48.7997C337.274 49.2433 337.607 49.7978 337.718 50.4633L336.498 50.796C336.387 50.2415 336.165 49.7978 335.943 49.576C335.722 49.2433 335.389 49.0215 334.945 48.7997C334.502 48.5778 334.058 48.5778 333.503 48.5778C332.838 48.5778 332.283 48.6887 331.84 48.9106C331.396 49.1324 330.952 49.3542 330.731 49.6869C330.398 50.0197 330.176 50.3524 330.065 50.6851C329.843 51.3506 329.622 52.016 329.622 52.7924C329.622 53.6797 329.732 54.456 330.065 55.1215C330.398 55.7869 330.842 56.2306 331.507 56.5633C332.172 56.896 332.727 57.0069 333.503 57.0069C334.058 57.0069 334.723 56.896 335.278 56.6742C335.832 56.4524 336.276 56.2306 336.609 55.8978V53.9015H333.392V54.0124Z" fill="black"/>
<path d="M344.705 57.1181C344.262 57.5617 343.818 57.7835 343.375 58.0053C342.931 58.2272 342.487 58.2272 341.933 58.2272C341.045 58.2272 340.491 58.0053 340.047 57.6726C339.604 57.229 339.382 56.7853 339.382 56.1199C339.382 55.7872 339.493 55.4544 339.604 55.1217C339.825 54.789 340.047 54.5672 340.269 54.3453C340.491 54.1235 340.824 54.0126 341.156 53.9017C341.378 53.7908 341.822 53.7908 342.265 53.6799C343.264 53.569 344.04 53.4581 344.595 53.2362C344.595 53.0144 344.595 52.9035 344.595 52.9035C344.595 52.349 344.484 52.0162 344.262 51.7944C343.929 51.4617 343.485 51.3508 342.82 51.3508C342.265 51.3508 341.822 51.4617 341.489 51.6835C341.156 51.9053 340.935 52.2381 340.824 52.7926L339.604 52.5708C339.715 52.0162 339.936 51.5726 340.158 51.2399C340.38 50.9072 340.824 50.6853 341.267 50.4635C341.711 50.2417 342.376 50.2417 342.931 50.2417C343.596 50.2417 344.151 50.3526 344.484 50.4635C344.927 50.5744 345.149 50.7962 345.371 51.0181C345.593 51.2399 345.704 51.5726 345.815 51.9053C345.815 52.1272 345.925 52.5708 345.925 53.1253V54.789C345.925 56.009 345.925 56.7853 346.036 57.0072C346.036 57.3399 346.147 57.6726 346.369 57.8944H344.927C344.816 57.7835 344.705 57.5617 344.705 57.1181ZM344.595 54.3453C344.151 54.5672 343.375 54.6781 342.487 54.789C341.933 54.8999 341.6 54.8999 341.378 55.0108C341.156 55.1217 341.045 55.2326 340.824 55.4544C340.713 55.6762 340.602 55.7872 340.602 56.009C340.602 56.3417 340.713 56.6744 341.045 56.8962C341.267 57.1181 341.711 57.229 342.155 57.229C342.598 57.229 343.042 57.1181 343.485 56.8962C343.818 56.6744 344.151 56.3417 344.373 56.009C344.484 55.6762 344.595 55.3435 344.595 54.6781V54.3453Z" fill="black"/>
<path d="M347.922 49.1327V47.6909H349.253V49.1327H347.922ZM347.922 58.1164V50.5746H349.253V58.1164H347.922Z" fill="black"/>
<path d="M356.018 57.1181C355.575 57.5617 355.131 57.7835 354.688 58.0053C354.244 58.2272 353.8 58.2272 353.246 58.2272C352.358 58.2272 351.804 58.0053 351.36 57.6726C350.917 57.229 350.695 56.7853 350.695 56.1199C350.695 55.7872 350.806 55.4544 350.917 55.1217C351.138 54.789 351.36 54.5672 351.582 54.3453C351.804 54.1235 352.137 54.0126 352.469 53.9017C352.691 53.7908 353.135 53.7908 353.578 53.6799C354.577 53.569 355.353 53.4581 355.908 53.2362C355.908 53.0144 355.908 52.9035 355.908 52.9035C355.908 52.349 355.797 52.0162 355.575 51.7944C355.242 51.4617 354.798 51.3508 354.133 51.3508C353.578 51.3508 353.135 51.4617 352.802 51.6835C352.469 51.9053 352.248 52.2381 352.137 52.7926L350.917 52.5708C351.028 52.0162 351.249 51.5726 351.471 51.2399C351.693 50.9072 352.137 50.6853 352.58 50.4635C353.024 50.2417 353.689 50.2417 354.244 50.2417C354.909 50.2417 355.464 50.3526 355.797 50.4635C356.24 50.5744 356.462 50.7962 356.684 51.0181C356.906 51.2399 357.017 51.5726 357.128 51.9053C357.128 52.1272 357.238 52.5708 357.238 53.1253V54.789C357.238 56.009 357.238 56.7853 357.349 57.0072C357.349 57.3399 357.46 57.6726 357.682 57.8944H356.351C356.129 57.7835 356.129 57.5617 356.018 57.1181ZM355.908 54.3453C355.464 54.5672 354.688 54.6781 353.8 54.789C353.246 54.8999 352.913 54.8999 352.691 55.0108C352.469 55.1217 352.358 55.2326 352.137 55.4544C352.026 55.6762 351.915 55.7872 351.915 56.009C351.915 56.3417 352.026 56.6744 352.358 56.8962C352.58 57.1181 353.024 57.229 353.468 57.229C353.911 57.229 354.355 57.1181 354.798 56.8962C355.131 56.6744 355.464 56.3417 355.686 56.009C355.797 55.6762 355.908 55.3435 355.908 54.6781V54.3453Z" fill="black"/>
</svg>
