<svg width="50" height="50" viewBox="0 0 50 50" fill="none" xmlns="http://www.w3.org/2000/svg">
<circle cx="25" cy="25" r="25" fill="#8B8B8B" fill-opacity="0.4"/>
<path d="M30.9 23.5C31.2167 23.85 31.375 24.2583 31.375 24.725C31.375 25.1917 31.2167 25.65 30.9 26.1C29.7667 26.6333 28.5333 27.3583 27.2 28.275C25.8833 29.175 24.775 29.8917 23.875 30.425C22.975 30.9583 22.2 31.225 21.55 31.225C20.9 31.225 20.425 30.6083 20.125 29.375C21.1917 28.975 22.75 28.1583 24.8 26.925C26.8667 25.675 28.0583 24.9667 28.375 24.8C28.0417 24.6167 26.8583 23.9167 24.825 22.7C22.7917 21.4667 21.225 20.6417 20.125 20.225C20.425 18.9917 20.9 18.375 21.55 18.375C22.2 18.375 22.975 18.6417 23.875 19.175C24.775 19.7083 25.8833 20.4333 27.2 21.35C28.5333 22.25 29.7667 22.9667 30.9 23.5Z" fill="white"/>
</svg>
