<svg width="50" height="50" viewBox="0 0 50 50" fill="none" xmlns="http://www.w3.org/2000/svg">
<circle cx="25" cy="25" r="25" transform="rotate(-180 25 25)" fill="#8B8B8B" fill-opacity="0.4"/>
<path d="M19.1 26.5C18.7833 26.15 18.625 25.7417 18.625 25.275C18.625 24.8083 18.7833 24.35 19.1 23.9C20.2333 23.3667 21.4667 22.6417 22.8 21.725C24.1167 20.825 25.225 20.1083 26.125 19.575C27.025 19.0417 27.8 18.775 28.45 18.775C29.1 18.775 29.575 19.3917 29.875 20.625C28.8083 21.025 27.25 21.8417 25.2 23.075C23.1333 24.325 21.9417 25.0333 21.625 25.2C21.9583 25.3833 23.1417 26.0833 25.175 27.3C27.2083 28.5333 28.775 29.3583 29.875 29.775C29.575 31.0083 29.1 31.625 28.45 31.625C27.8 31.625 27.025 31.3583 26.125 30.825C25.225 30.2917 24.1167 29.5667 22.8 28.65C21.4667 27.75 20.2333 27.0333 19.1 26.5Z" fill="white"/>
</svg>
