<svg width="83" height="69" viewBox="0 0 83 69" fill="none" xmlns="http://www.w3.org/2000/svg">
<path d="M81.6799 8.24322C79.8358 9.05448 77.9215 9.69449 75.9571 10.1578C78.1216 8.11735 79.749 5.56513 80.6671 2.71639C80.9292 1.90313 80.0388 1.19987 79.2985 1.63532C76.5658 3.24338 73.6223 4.44972 70.5494 5.22123C70.3711 5.266 70.1872 5.28869 70.0026 5.28869C69.4429 5.28869 68.8987 5.08251 68.4707 4.7083C65.2014 1.84972 60.9965 0.275391 56.6309 0.275391C54.7418 0.275391 52.8346 0.567492 50.9619 1.14366C45.1598 2.92899 40.6829 7.67709 39.2783 13.5352C38.7514 15.7324 38.6087 17.9317 38.8539 20.0718C38.8821 20.3177 38.7649 20.4894 38.6927 20.5699C38.5658 20.711 38.3859 20.7919 38.1991 20.7919C38.1783 20.7919 38.1568 20.7909 38.1356 20.7889C25.4349 19.6183 13.982 13.548 5.88645 3.69648C5.47363 3.19399 4.68199 3.25562 4.35295 3.81553C2.76764 6.5137 1.92986 9.59973 1.92986 12.74C1.92986 17.5525 3.87881 22.0878 7.26414 25.3941C5.84052 25.0592 4.46263 24.5318 3.18269 23.8266C2.56346 23.4853 1.80156 23.9239 1.79286 24.6266C1.70423 31.7759 5.92349 38.1375 12.2441 41.0021C12.1168 41.0051 11.9895 41.0065 11.862 41.0065C10.8601 41.0065 9.84568 40.9105 8.84722 40.7212C8.14988 40.5891 7.56404 41.2454 7.78057 41.9161C9.83212 48.2703 15.3469 52.9539 21.9464 54.0173C16.4692 57.6649 10.0909 59.5889 3.45244 59.5889L1.38287 59.5877C0.745231 59.5877 0.205934 60.0001 0.0434371 60.6128C-0.116632 61.2163 0.178211 61.8529 0.721959 62.1667C8.20249 66.4855 16.7351 68.7681 25.4011 68.7681C32.9866 68.7681 40.0823 67.2747 46.4911 64.3296C52.3663 61.6296 57.5581 57.7701 61.9223 52.8582C65.9877 48.2825 69.1668 43.0004 71.371 37.1588C73.4721 31.5904 74.5827 25.6488 74.5827 19.9762V19.706C74.5825 18.7952 74.9977 17.9382 75.7222 17.3548C78.4713 15.1404 80.8652 12.5338 82.8373 9.60736C83.3579 8.83465 82.5367 7.8662 81.6799 8.24322Z" fill="#828282"/>
</svg>
