<svg width="494" height="408" viewBox="0 0 494 408" fill="none" xmlns="http://www.w3.org/2000/svg">
<path fill-rule="evenodd" clip-rule="evenodd" d="M0 0H152.737V72.7341H140.355V12.061H12.3821V121.32H90.5663V133.381H0V0Z" fill="url(#paint0_linear)"/>
<path fill-rule="evenodd" clip-rule="evenodd" d="M340.546 335.431V407.237H493.283V273.856H398.259V285.917H480.901V395.176H352.928V335.431H340.546Z" fill="url(#paint1_linear)"/>
<path fill-rule="evenodd" clip-rule="evenodd" d="M411.493 58.1768H77.3325V349.988H411.493V58.1768ZM398.259 72.7343H90.5663V335.431H398.259V72.7343Z" fill="url(#paint2_linear)"/>
<path fill-rule="evenodd" clip-rule="evenodd" d="M411.493 58.1768H77.3325V349.988H411.493V58.1768ZM398.259 72.7343H90.5663V335.431H398.259V72.7343Z" fill="url(#paint3_linear)"/>
<rect x="90.5664" y="72.7344" width="307.693" height="262.697" fill="#CEE9D0" fill-opacity="0.25"/>
<path fill-rule="evenodd" clip-rule="evenodd" d="M140.475 12.061H12.061V121.32H77.3323V58.1767H140.475V12.061Z" fill="#CEE9D0" fill-opacity="0.25"/>
<path fill-rule="evenodd" clip-rule="evenodd" d="M352.607 349.769L411.493 349.769L411.493 285.917L481.021 285.917L481.021 395.176L352.607 395.176L352.607 349.769Z" fill="#CEE9D0" fill-opacity="0.25"/>
<path fill-rule="evenodd" clip-rule="evenodd" d="M201.468 156.5C196.012 156.5 191.693 160.819 191.693 166.275C191.693 171.73 196.012 176.05 201.468 176.05C206.924 176.05 211.243 171.73 211.243 166.275C211.47 160.819 206.924 156.5 201.468 156.5Z" fill="#0C8748"/>
<path fill-rule="evenodd" clip-rule="evenodd" d="M215.334 194.918C221.017 190.598 226.928 186.279 232.611 181.96C232.838 181.733 233.065 181.506 233.52 181.278C235.338 179.914 236.02 179.46 236.475 177.187C237.612 172.186 235.111 169.003 230.792 167.639C228.973 167.184 227.61 167.184 226.018 167.866C224.427 168.548 222.836 169.685 221.472 170.594C219.426 172.186 217.153 173.777 215.107 175.141C213.743 176.277 212.379 177.414 210.788 178.551C210.333 179.005 209.879 179.46 209.197 179.687C207.605 181.051 206.696 182.188 206.014 184.006C204.423 188.78 204.878 194.918 204.878 200.146C204.878 201.283 204.878 201.965 205.105 202.874C205.332 203.556 205.332 204.01 205.559 204.692C205.559 203.556 206.014 202.419 206.923 201.283C209.197 199.009 212.606 196.963 215.334 194.918Z" fill="#91BE3F"/>
<path fill-rule="evenodd" clip-rule="evenodd" d="M229.201 224.696C233.066 221.969 237.157 219.241 241.022 216.74C241.022 215.831 241.022 214.922 240.794 214.012C232.156 207.647 223.745 201.282 215.107 194.917C212.379 196.963 208.97 198.782 206.924 201.51C204.65 204.238 205.332 206.056 207.606 209.239C209.424 210.603 211.243 212.421 213.061 213.785C217.835 217.422 222.609 221.059 227.383 224.696C228.065 224.696 228.746 224.696 229.201 224.696Z" fill="#078848"/>
<path fill-rule="evenodd" clip-rule="evenodd" d="M187.6 194.918C181.917 190.598 176.007 186.279 170.324 181.96C170.096 181.733 169.869 181.506 169.414 181.278C167.596 179.914 166.914 179.46 166.459 177.187C165.323 172.186 167.823 169.003 172.142 167.639C173.961 167.184 175.325 167.184 176.916 167.866C178.507 168.548 180.099 169.685 181.462 170.594C183.508 172.186 185.782 173.777 187.827 175.141C189.191 176.277 190.555 177.414 192.147 178.551C192.601 179.005 193.056 179.46 193.738 179.687C195.329 181.051 196.238 182.188 196.92 184.006C198.512 188.78 198.057 194.918 198.057 200.146C198.057 201.283 198.057 201.965 197.83 202.874C197.602 203.556 197.602 204.01 197.375 204.692C197.375 203.556 196.92 202.419 196.011 201.283C193.738 199.009 190.101 196.963 187.6 194.918Z" fill="#91BE3F"/>
<path fill-rule="evenodd" clip-rule="evenodd" d="M173.735 224.696C169.87 221.969 165.779 219.241 161.914 216.74C161.914 215.831 161.914 214.922 162.141 214.012C170.78 207.647 179.19 201.282 187.829 194.917C190.556 196.963 193.966 198.782 196.012 201.51C198.285 204.238 197.603 206.056 195.33 209.239C193.512 210.603 191.693 212.421 189.874 213.785C185.101 217.422 180.327 221.059 175.553 224.696C174.644 224.696 174.189 224.696 173.735 224.696Z" fill="#078848"/>
<path d="M145.774 105.58V102.398C145.774 101.943 146.001 101.489 146.228 101.261C146.456 101.034 146.91 100.807 147.365 100.807H167.142C167.597 100.807 168.051 101.034 168.278 101.261C168.506 101.489 168.733 101.943 168.733 102.398V105.808H172.143C172.598 105.808 173.052 106.035 173.28 106.262C173.507 106.49 173.734 106.944 173.734 107.399V111.718C173.734 112.173 173.507 112.627 173.28 112.855C173.052 113.082 172.598 113.309 172.143 113.309H167.824C167.369 113.309 166.915 113.082 166.687 112.855C166.46 112.627 166.233 112.173 166.233 111.718V108.763H149.184V115.81H167.369C167.824 115.81 168.278 116.037 168.506 116.264C168.733 116.492 168.96 116.946 168.96 117.401V120.811H172.37C172.825 120.811 173.28 121.038 173.507 121.265C173.734 121.493 173.961 121.947 173.961 122.402V137.178C173.961 137.633 173.734 138.087 173.507 138.315C173.28 138.542 172.825 138.769 172.37 138.769H169.415V141.952C169.415 142.406 169.188 142.861 168.96 143.088C168.733 143.316 168.278 143.543 167.824 143.543H147.82C147.365 143.543 146.91 143.316 146.683 143.088C146.456 142.861 146.228 142.406 146.228 141.952V138.542H142.591C142.137 138.542 141.682 138.315 141.455 138.087C141.227 137.86 141 137.633 141 137.178V132.632C141 132.177 141.227 131.722 141.455 131.495C141.682 131.268 142.137 131.04 142.591 131.04H147.138C147.592 131.04 148.047 131.268 148.274 131.495C148.502 131.722 148.729 132.177 148.729 132.632V135.814H166.005V123.539H147.82C147.138 123.539 146.91 123.539 146.456 123.084C146.228 122.857 146.001 122.402 146.001 121.947V118.538H142.591C142.137 118.538 141.682 118.31 141.455 118.083C141.227 117.856 141 117.401 141 116.946V107.172C141 106.717 141.227 106.262 141.455 106.035C141.682 105.808 142.137 105.58 142.591 105.58H145.774Z" fill="white"/>
<path d="M185.555 100.807C186.009 100.807 186.464 101.034 186.691 101.261C186.919 101.489 187.146 101.943 187.146 102.398V135.587H204.195V102.398C204.195 101.943 204.422 101.489 204.65 101.261C204.877 101.034 205.559 100.807 206.013 100.807H210.56C211.015 100.807 211.469 101.034 211.697 101.261C211.924 101.489 212.151 101.943 212.151 102.398V137.178C212.151 137.633 211.924 138.087 211.697 138.315C211.469 138.542 211.015 138.769 210.56 138.769H207.605V141.952C207.605 142.406 207.377 142.861 207.15 143.088C206.923 143.316 206.468 143.543 206.013 143.543H186.009C185.555 143.543 185.1 143.316 184.873 143.088C184.645 142.861 184.418 142.406 184.418 141.952V138.542H181.008C180.554 138.542 180.099 138.315 179.872 138.087C179.644 137.86 179.417 137.405 179.417 136.951V102.398C179.417 101.943 179.644 101.489 179.872 101.261C180.099 101.034 180.554 100.807 181.008 100.807H185.555Z" fill="white"/>
<path d="M241.476 114.219V116.946C241.476 117.401 241.248 117.856 241.021 118.083C240.794 118.31 240.339 118.538 239.885 118.538H230.11C229.655 118.538 229.2 118.31 228.973 118.083C228.746 117.856 228.518 117.401 228.518 116.946V113.764H226.473V141.952C226.473 142.406 226.245 142.861 226.018 143.088C225.791 143.316 225.336 143.543 224.881 143.543H220.108C219.653 143.543 219.198 143.316 218.971 143.088C218.744 142.861 218.289 142.634 218.289 142.179V102.398C218.289 101.943 218.516 101.489 218.744 101.261C218.971 101.034 219.426 100.807 219.88 100.807H224.654C225.109 100.807 225.563 101.034 225.791 101.261C226.018 101.489 226.245 101.943 226.245 102.398V105.353H229.2C229.655 105.353 230.11 105.58 230.337 105.808C230.564 106.035 230.792 106.49 230.792 106.944V110.354H237.839V107.172C237.839 106.717 238.066 106.262 238.293 106.035C238.521 105.808 238.975 105.58 239.43 105.58H243.294V102.398C243.294 101.943 243.522 101.489 243.749 101.261C243.976 101.034 244.431 100.807 244.886 100.807H249.432C249.887 100.807 250.341 101.034 250.569 101.261C250.796 101.489 251.023 101.943 251.023 102.398V141.952C251.023 142.406 250.796 142.861 250.569 143.088C250.341 143.316 249.887 143.543 249.432 143.543H244.886C244.431 143.543 243.976 143.316 243.749 143.088C243.522 142.861 243.294 142.634 243.294 142.179V114.219H241.476Z" fill="white"/>
<path d="M280.348 114.219V116.946C280.348 117.401 280.121 117.856 279.893 118.083C279.666 118.31 279.211 118.538 278.757 118.538H268.982C268.527 118.538 268.073 118.31 267.845 118.083C267.618 117.856 267.391 117.401 267.391 116.946V113.764H265.345V141.952C265.345 142.406 265.118 142.861 264.89 143.088C264.663 143.316 264.208 143.543 263.754 143.543H258.98C258.525 143.543 258.071 143.316 257.843 143.088C257.616 142.861 257.389 142.406 257.389 141.952V102.398C257.389 101.943 257.616 101.489 257.843 101.261C258.071 101.034 258.525 100.807 258.98 100.807H263.754C264.208 100.807 264.663 101.034 264.89 101.261C265.118 101.489 265.345 101.943 265.345 102.398V105.353H268.3C268.755 105.353 269.209 105.58 269.437 105.808C269.664 106.035 269.891 106.49 269.891 106.944V110.354H276.938V107.172C276.938 106.717 277.166 106.262 277.393 106.035C277.62 105.808 278.075 105.58 278.529 105.58H281.939V102.398C281.939 101.943 282.167 101.489 282.394 101.261C282.849 101.034 283.303 100.807 283.758 100.807H288.304C288.759 100.807 289.214 101.034 289.441 101.261C289.668 101.489 289.896 101.943 289.896 102.398V141.952C289.896 142.406 289.668 142.861 289.441 143.088C289.214 143.316 288.759 143.543 288.304 143.543H283.758C283.303 143.543 282.849 143.316 282.621 143.088C282.394 142.861 282.167 142.406 282.167 141.952V114.219H280.348Z" fill="white"/>
<path d="M304.443 135.814V108.763H296.486C296.032 108.763 295.577 108.536 295.35 108.308C295.123 108.081 295.123 107.626 295.123 107.172V102.398C295.123 101.943 295.35 101.489 295.577 101.261C295.805 101.034 296.259 100.807 296.714 100.807H321.264C321.719 100.807 322.174 101.034 322.401 101.261C322.628 101.716 322.856 101.943 322.856 102.398V107.172C322.856 107.626 322.628 108.081 322.401 108.308C322.174 108.536 321.719 108.763 321.264 108.763H313.536V135.587H321.264C321.719 135.587 322.174 135.814 322.401 136.041C322.628 136.269 322.856 136.723 322.856 137.178V141.952C322.856 142.406 322.628 142.861 322.401 143.088C322.174 143.316 321.719 143.543 321.264 143.543H296.714C296.259 143.543 295.805 143.316 295.577 143.088C295.35 142.861 295.123 142.406 295.123 141.952V137.178C295.123 136.723 295.35 136.269 295.577 136.041C295.805 135.814 296.259 135.587 296.714 135.587H304.443V135.814Z" fill="white"/>
<path d="M327.858 108.763C327.403 108.763 326.949 108.536 326.721 108.308C326.494 108.081 326.267 107.626 326.267 107.172V102.398C326.267 101.943 326.494 101.489 326.721 101.261C326.949 101.034 327.403 100.807 327.858 100.807H352.408C352.863 100.807 353.318 101.034 353.545 101.261C353.772 101.489 354 101.943 354 102.398V107.172C354 107.626 353.772 108.081 353.545 108.308C353.318 108.536 352.863 108.763 352.408 108.763H344.225V141.952C344.225 142.406 343.998 142.861 343.77 143.088C343.543 143.316 343.088 143.543 342.634 143.543H337.633C337.178 143.543 336.723 143.316 336.496 143.088C336.269 142.861 336.041 142.406 336.041 141.952V108.763H327.858Z" fill="white"/>
<path d="M271.255 204.011V182.415H269.891V185.143C269.891 185.598 269.664 186.052 269.437 186.28C269.209 186.507 268.755 186.734 268.3 186.734H263.526C263.072 186.734 262.617 186.507 262.39 186.28C262.162 186.052 261.935 185.598 261.935 185.143V180.597C261.935 180.142 262.162 179.687 262.39 179.46C262.617 179.233 263.072 179.005 263.526 179.005H266.709V175.596C266.709 175.141 266.936 174.686 267.163 174.459C267.391 174.232 267.845 174.004 268.3 174.004H271.71V171.049C271.71 170.595 271.937 170.14 272.164 169.913C272.392 169.685 272.846 169.458 273.301 169.458H278.302C278.757 169.458 279.211 169.685 279.439 169.913C279.666 170.14 279.893 170.595 279.893 171.049V204.238H288.077C288.532 204.238 288.986 204.465 289.214 204.693C289.441 204.92 289.668 205.375 289.668 205.829V210.603C289.668 211.058 289.441 211.512 289.214 211.74C288.986 211.967 288.532 212.194 288.077 212.194H263.526C263.072 212.194 262.617 211.967 262.39 211.74C262.162 211.512 261.935 211.058 261.935 210.603V205.829C261.935 205.375 262.162 204.92 262.39 204.693C262.617 204.465 263.072 204.238 263.526 204.238H271.255V204.011Z" fill="white"/>
<path d="M310.127 199.464C310.582 199.464 311.036 199.692 311.264 199.919C311.491 200.146 311.718 200.601 311.718 201.056V210.376C311.718 210.83 311.491 211.285 311.264 211.512C311.036 211.74 310.582 211.967 310.127 211.967H300.58C300.125 211.967 299.67 211.74 299.443 211.512C299.216 211.285 298.988 210.83 298.988 210.376V201.056C298.988 200.601 299.216 200.146 299.443 199.919C299.67 199.692 300.125 199.464 300.58 199.464H310.127Z" fill="white"/>
<path d="M322.857 207.421C322.402 207.421 321.948 207.193 321.72 206.966C321.493 206.739 321.266 206.284 321.266 205.829V175.596C321.266 175.141 321.493 174.686 321.72 174.459C321.948 174.232 322.402 174.004 322.857 174.004H325.812V171.049C325.812 170.595 326.039 170.14 326.267 169.913C326.494 169.685 326.949 169.458 327.403 169.458H347.635C348.089 169.458 348.544 169.685 348.771 169.913C348.999 170.14 349.226 170.595 349.226 171.049V174.004H352.409C352.863 174.004 353.318 174.232 353.545 174.459C353.772 174.686 354 175.141 354 175.596V205.829C354 206.284 353.772 206.739 353.545 206.966C353.318 207.193 352.863 207.421 352.409 207.421H349.453V210.603C349.453 211.058 349.226 211.512 348.999 211.74C348.771 211.967 348.317 212.194 347.862 212.194H327.403C326.949 212.194 326.494 211.967 326.267 211.74C326.039 211.512 325.812 211.058 325.812 210.603V207.421H322.857ZM329.449 198.782H330.813V190.599C330.813 190.144 331.04 189.69 331.268 189.462C331.495 189.235 331.95 189.008 332.404 189.008H335.814V180.597C335.814 180.142 336.041 179.687 336.269 179.46C336.496 179.233 336.951 179.005 337.405 179.005H340.588V177.642H329.449V198.782ZM334.45 203.783H345.589V182.415H344.225V190.599C344.225 191.053 343.998 191.508 343.77 191.735C343.543 191.963 343.088 192.19 342.634 192.19H339.224V200.601C339.224 201.056 338.997 201.51 338.769 201.738C338.542 201.965 338.087 202.192 337.633 202.192H334.45V203.783Z" fill="white"/>
<path d="M142.592 248.565L144.638 248.338C144.638 249.247 144.865 249.702 145.32 250.384C145.547 250.838 146.229 251.066 146.911 251.52C147.593 251.747 148.502 251.975 149.411 251.975C150.321 251.975 151.003 251.747 151.457 251.52C152.139 251.293 152.594 250.838 152.821 250.611C153.049 250.156 153.276 249.702 153.276 249.247C153.276 248.792 153.049 248.338 152.821 247.883C152.594 247.428 152.139 247.201 151.457 246.974C151.003 246.746 150.093 246.519 148.502 246.292C147.138 245.837 146.002 245.61 145.32 245.382C144.638 244.928 143.956 244.473 143.728 243.791C143.501 243.109 143.274 242.427 143.274 241.745C143.274 240.836 143.501 240.154 143.956 239.472C144.41 238.79 145.092 238.336 146.002 237.881C146.911 237.426 147.82 237.426 148.957 237.426C150.093 237.426 151.23 237.654 152.139 238.108C153.049 238.563 153.731 239.018 154.185 239.699C154.64 240.381 154.867 241.291 154.867 242.2L152.821 242.427C152.821 241.518 152.367 240.609 151.685 240.154C151.003 239.699 150.093 239.245 148.957 239.245C147.593 239.245 146.684 239.472 146.229 239.927C145.547 240.381 145.32 241.063 145.32 241.518C145.32 242.2 145.547 242.655 146.002 242.882C146.456 243.337 147.366 243.564 149.184 244.019C151.003 244.473 152.139 244.701 152.821 244.928C153.731 245.382 154.412 245.837 154.867 246.519C155.322 247.201 155.549 247.883 155.549 248.792C155.549 249.702 155.322 250.384 154.867 251.293C154.412 251.975 153.731 252.657 152.821 253.111C151.912 253.566 150.775 253.793 149.639 253.793C148.275 253.793 146.911 253.566 146.002 253.111C145.092 252.657 144.183 251.975 143.728 251.293C143.274 250.611 142.592 249.474 142.592 248.565Z" fill="white"/>
<path d="M165.778 249.929L167.824 250.156C167.597 251.293 166.915 252.202 166.005 252.884C165.096 253.566 163.96 253.793 162.596 253.793C161.004 253.793 159.64 253.338 158.504 252.202C157.367 251.065 156.913 249.701 156.913 247.883C156.913 245.837 157.367 244.473 158.504 243.336C159.413 242.2 160.777 241.745 162.368 241.745C163.96 241.745 165.096 242.2 166.233 243.336C167.142 244.473 167.597 245.837 167.597 247.883C167.597 248.11 167.597 248.11 167.597 248.337H159.413C159.413 249.701 159.868 250.611 160.55 251.293C161.232 251.975 161.914 252.202 163.05 252.202C163.732 252.202 164.414 251.975 164.869 251.747C165.096 251.293 165.551 250.611 165.778 249.929ZM159.413 246.746H166.005C166.005 245.837 165.778 245.155 165.323 244.473C164.641 243.791 163.96 243.336 162.823 243.336C161.914 243.336 161.232 243.564 160.55 244.246C159.868 244.928 159.413 245.61 159.413 246.746Z" fill="white"/>
<path d="M170.326 253.566V241.972H172.144V243.791C172.599 242.882 173.054 242.427 173.281 242.2C173.735 241.972 174.19 241.745 174.645 241.745C175.327 241.745 176.009 241.972 176.691 242.427L176.009 244.246C175.554 244.018 175.099 243.791 174.645 243.791C174.19 243.791 173.735 244.018 173.508 244.246C173.281 244.473 172.826 244.928 172.826 245.382C172.599 246.064 172.599 246.746 172.599 247.655V253.793H170.326V253.566Z" fill="white"/>
<path d="M181.009 253.566L176.69 241.972H178.736L181.236 248.792C181.464 249.474 181.691 250.383 181.918 251.065C182.146 250.383 182.373 249.701 182.6 248.792L185.101 241.745H187.147L182.828 253.338H181.009V253.566Z" fill="white"/>
<path d="M188.965 239.928V237.654H191.011V239.928H188.965ZM188.965 253.567V241.973H191.011V253.567H188.965Z" fill="white"/>
<path d="M201.467 249.247L203.285 249.474C203.058 250.838 202.603 251.747 201.694 252.657C200.785 253.338 199.875 253.793 198.512 253.793C196.92 253.793 195.556 253.338 194.647 252.202C193.738 251.065 193.283 249.701 193.283 247.655C193.283 246.519 193.511 245.382 193.965 244.473C194.42 243.564 195.102 242.882 195.784 242.427C196.693 241.972 197.602 241.745 198.512 241.745C199.875 241.745 200.785 241.972 201.694 242.654C202.603 243.336 203.058 244.246 203.285 245.382L201.467 245.61C201.239 244.928 201.012 244.246 200.557 243.791C200.103 243.336 199.648 243.109 198.966 243.109C198.057 243.109 197.148 243.564 196.466 244.246C195.784 244.928 195.556 246.064 195.556 247.655C195.556 249.247 195.784 250.383 196.466 251.065C197.148 251.747 197.83 252.202 198.739 252.202C199.421 252.202 200.103 251.975 200.557 251.52C201.012 251.065 201.239 250.383 201.467 249.247ZM196.92 255.157L197.375 253.338H198.739L198.284 254.475C198.966 254.475 199.421 254.702 199.648 255.157C199.875 255.612 200.103 255.839 200.103 256.294C200.103 256.748 199.876 257.43 199.421 257.658C198.966 258.112 198.057 258.34 197.148 258.34C196.466 258.34 196.011 258.34 195.556 258.112L195.784 256.748C196.238 256.748 196.693 256.748 196.92 256.748C197.602 256.748 198.057 256.748 198.284 256.521C198.512 256.294 198.512 256.294 198.512 256.066C198.512 255.839 198.512 255.839 198.284 255.612C198.284 255.612 198.057 255.384 197.83 255.384C197.83 255.157 197.375 255.157 196.92 255.157Z" fill="white"/>
<path d="M204.196 247.883C204.196 245.837 204.878 244.246 206.014 243.109C206.924 242.2 208.288 241.745 209.651 241.745C211.243 241.745 212.607 242.2 213.516 243.336C214.425 244.473 215.107 245.837 215.107 247.655C215.107 249.247 214.88 250.383 214.425 251.065C213.971 251.747 213.289 252.657 212.379 253.111C211.47 253.566 210.561 253.793 209.651 253.793C208.06 253.793 206.696 253.338 205.787 252.202C204.878 251.293 204.196 249.701 204.196 247.883ZM206.242 247.883C206.242 249.474 206.469 250.383 207.151 251.293C207.833 251.975 208.515 252.429 209.651 252.429C210.561 252.429 211.47 251.975 212.152 251.293C212.834 250.611 213.061 249.474 213.061 247.883C213.061 246.519 212.834 245.382 212.152 244.7C211.47 244.018 210.788 243.564 209.651 243.564C208.742 243.564 207.833 244.018 207.151 244.7C206.696 245.155 206.242 246.292 206.242 247.883Z" fill="white"/>
<path d="M231.019 253.566V252.203C230.337 253.339 229.2 254.021 227.837 254.021C226.927 254.021 226.018 253.794 225.336 253.339C224.654 252.885 223.972 252.203 223.517 251.293C223.063 250.384 222.835 249.247 222.835 248.111C222.835 246.974 223.063 245.838 223.517 244.928C223.972 244.019 224.427 243.337 225.336 242.655C226.018 242.2 226.927 241.973 227.837 241.973C228.518 241.973 229.2 242.2 229.655 242.428C230.11 242.655 230.564 243.11 231.019 243.564V237.881H233.065V253.794H231.019V253.566ZM224.881 247.883C224.881 249.475 225.109 250.384 225.791 251.293C226.473 252.203 227.155 252.43 228.064 252.43C228.973 252.43 229.655 251.975 230.337 251.293C231.019 250.611 231.246 249.475 231.246 248.111C231.246 246.52 231.019 245.383 230.337 244.701C229.655 244.019 228.973 243.564 228.064 243.564C227.155 243.564 226.473 244.019 225.791 244.701C225.109 245.383 224.881 246.292 224.881 247.883Z" fill="white"/>
<path d="M243.977 249.929L246.023 250.156C245.796 251.293 245.114 252.202 244.205 252.884C243.295 253.566 242.159 253.793 240.795 253.793C239.204 253.793 237.84 253.338 236.703 252.202C235.566 251.065 235.112 249.701 235.112 247.883C235.112 245.837 235.566 244.473 236.703 243.336C237.612 242.2 238.976 241.745 240.568 241.745C242.159 241.745 243.295 242.2 244.432 243.336C245.341 244.473 245.796 245.837 245.796 247.883C245.796 248.11 245.796 248.11 245.796 248.337H237.158C237.158 249.701 237.612 250.611 238.294 251.293C238.976 251.975 239.658 252.202 240.795 252.202C241.477 252.202 242.159 251.975 242.613 251.747C243.295 251.293 243.523 250.611 243.977 249.929ZM237.385 246.746H243.75C243.75 245.837 243.523 245.155 243.068 244.473C242.386 243.791 241.704 243.336 240.568 243.336C239.658 243.336 238.976 243.564 238.294 244.246C237.84 244.928 237.612 245.61 237.385 246.746Z" fill="white"/>
<path d="M254.888 253.567V237.654H265.572V239.473H256.934V244.474H264.435V246.292H256.934V253.567H254.888Z" fill="white"/>
<path d="M267.391 247.883C267.391 245.837 268.073 244.246 269.209 243.109C270.118 242.2 271.482 241.745 272.846 241.745C274.438 241.745 275.801 242.2 276.711 243.336C277.62 244.473 278.302 245.837 278.302 247.655C278.302 249.247 278.075 250.383 277.62 251.065C277.165 251.747 276.483 252.657 275.574 253.111C274.665 253.566 273.756 253.793 272.846 253.793C271.255 253.793 269.891 253.338 268.982 252.202C267.845 251.293 267.391 249.701 267.391 247.883ZM269.437 247.883C269.437 249.474 269.664 250.383 270.346 251.293C271.028 251.975 271.71 252.429 272.846 252.429C273.756 252.429 274.665 251.975 275.347 251.293C276.029 250.611 276.256 249.474 276.256 247.883C276.256 246.519 276.029 245.382 275.347 244.7C274.665 244.018 273.983 243.564 272.846 243.564C271.937 243.564 271.028 244.018 270.346 244.7C269.891 245.155 269.437 246.292 269.437 247.883Z" fill="white"/>
<path d="M280.576 253.566V241.972H282.394V243.791C282.849 242.882 283.304 242.427 283.531 242.2C283.985 241.972 284.44 241.745 284.895 241.745C285.577 241.745 286.259 241.972 286.941 242.427L286.259 244.246C285.804 244.018 285.349 243.791 284.895 243.791C284.44 243.791 283.985 244.018 283.758 244.246C283.531 244.473 283.076 244.928 283.076 245.382C282.849 246.064 282.849 246.746 282.849 247.655V253.793H280.576V253.566Z" fill="white"/>
<path d="M288.077 253.566V241.972H289.895V243.564C290.35 243.109 290.805 242.654 291.259 242.2C291.941 241.745 292.623 241.745 293.305 241.745C294.214 241.745 294.896 241.972 295.351 242.2C295.806 242.654 296.26 243.109 296.488 243.791C297.397 242.427 298.533 241.745 300.125 241.745C301.261 241.745 302.171 241.972 302.852 242.654C303.534 243.336 303.762 244.246 303.762 245.61V253.566H301.716V246.292C301.716 245.61 301.716 244.928 301.489 244.7C301.261 244.473 301.034 244.018 300.807 243.791C300.579 243.564 300.125 243.564 299.67 243.564C298.761 243.564 298.079 243.791 297.624 244.473C297.169 244.928 296.715 245.837 296.715 246.973V253.793H294.669V246.292C294.669 245.382 294.442 244.7 294.214 244.246C293.987 243.791 293.305 243.564 292.623 243.564C292.168 243.564 291.486 243.791 291.032 244.018C290.577 244.246 290.123 244.7 290.123 245.382C289.895 245.837 289.895 246.746 289.895 247.883V253.793H288.077V253.566Z" fill="white"/>
<path d="M313.992 252.203C313.31 252.885 312.628 253.339 311.946 253.567C311.264 253.794 310.582 254.021 309.673 254.021C308.309 254.021 307.4 253.794 306.718 253.112C306.036 252.43 305.581 251.748 305.581 250.839C305.581 250.384 305.808 249.702 306.036 249.248C306.263 248.793 306.718 248.338 306.945 248.111C307.4 247.884 307.854 247.656 308.309 247.429C308.764 247.429 309.218 247.202 310.127 247.202C311.719 246.974 312.855 246.747 313.537 246.52C313.537 246.292 313.537 246.065 313.537 246.065C313.537 245.156 313.31 244.701 313.083 244.474C312.628 244.019 311.946 243.792 310.809 243.792C309.9 243.792 309.218 244.019 308.764 244.247C308.309 244.474 308.082 245.156 307.854 246.065L306.036 245.838C306.263 244.929 306.49 244.247 306.945 243.792C307.4 243.337 307.854 242.883 308.764 242.655C309.446 242.428 310.355 242.201 311.491 242.201C312.401 242.201 313.31 242.428 313.992 242.655C314.674 242.883 315.129 243.11 315.356 243.565C315.583 244.019 315.81 244.247 316.038 244.929C316.038 245.156 316.038 245.838 316.038 246.747V249.248C316.038 251.066 316.038 252.203 316.265 252.657C316.492 253.112 316.492 253.567 316.72 254.021H314.674C314.219 253.112 314.219 252.657 313.992 252.203ZM313.992 247.884C313.31 248.111 312.173 248.338 310.809 248.566C309.9 248.793 309.446 248.793 308.991 249.02C308.764 249.248 308.309 249.475 308.309 249.702C308.082 249.93 308.082 250.384 308.082 250.612C308.082 251.066 308.309 251.521 308.764 251.975C309.218 252.43 309.673 252.43 310.582 252.43C311.264 252.43 311.946 252.203 312.628 251.975C313.31 251.748 313.537 251.294 313.992 250.612C314.219 250.157 314.219 249.475 314.219 248.566V247.884H313.992Z" fill="white"/>
<path d="M326.494 249.247L328.312 249.474C328.085 250.838 327.63 251.747 326.721 252.657C325.812 253.338 324.902 253.793 323.538 253.793C321.947 253.793 320.583 253.338 319.674 252.202C318.765 251.065 318.31 249.701 318.31 247.655C318.31 246.519 318.537 245.382 318.992 244.473C319.447 243.564 320.129 242.882 320.811 242.427C321.72 241.972 322.629 241.745 323.538 241.745C324.902 241.745 325.812 241.972 326.721 242.654C327.63 243.336 328.085 244.246 328.312 245.382L326.494 245.61C326.266 244.928 326.039 244.246 325.584 243.791C325.13 243.336 324.675 243.109 323.993 243.109C323.084 243.109 322.175 243.564 321.493 244.246C320.811 244.928 320.583 246.064 320.583 247.655C320.583 249.247 320.811 250.383 321.493 251.065C322.175 251.747 322.856 252.202 323.766 252.202C324.448 252.202 325.13 251.975 325.584 251.52C326.039 251.065 326.266 250.383 326.494 249.247ZM321.947 255.157L322.402 253.338H323.766L323.311 254.475C323.993 254.475 324.448 254.702 324.675 255.157C324.902 255.612 325.13 255.839 325.13 256.294C325.13 256.748 324.902 257.43 324.448 257.658C323.993 258.112 323.084 258.34 322.175 258.34C321.493 258.34 321.038 258.34 320.583 258.112L320.811 256.748C321.265 256.748 321.72 256.748 321.947 256.748C322.629 256.748 323.084 256.748 323.311 256.521C323.538 256.294 323.538 256.294 323.538 256.066C323.538 255.839 323.538 255.839 323.311 255.612C323.311 255.612 323.084 255.384 322.856 255.384C322.856 255.157 322.402 255.157 321.947 255.157Z" fill="white"/>
<path d="M337.633 252.203C336.951 252.885 336.269 253.339 335.587 253.566C334.905 253.794 334.223 254.021 333.314 254.021C331.95 254.021 331.041 253.794 330.359 253.112C329.677 252.43 329.222 251.748 329.222 250.839C329.222 250.384 329.449 249.702 329.677 249.247C329.904 248.793 330.359 248.338 330.586 248.111C331.041 247.883 331.495 247.656 331.95 247.429C332.405 247.429 332.859 247.201 333.769 247.201C335.36 246.974 336.496 246.747 337.178 246.52C337.178 246.292 337.178 246.065 337.178 246.065C337.178 245.156 336.951 244.701 336.724 244.474C336.269 244.019 335.587 243.792 334.451 243.792C333.541 243.792 332.859 244.019 332.405 244.246C331.95 244.474 331.723 245.156 331.495 246.065L329.677 245.383C329.904 244.474 330.131 243.792 330.586 243.337C331.041 242.882 331.495 242.428 332.405 242.2C333.087 241.973 333.996 241.746 335.132 241.746C336.042 241.746 336.951 241.973 337.633 242.2C338.315 242.428 338.77 242.655 338.997 243.11C339.224 243.564 339.452 243.792 339.679 244.474C339.679 244.701 339.679 245.383 339.679 246.292V248.793C339.679 250.611 339.679 251.748 339.906 252.203C340.134 252.657 340.134 253.112 340.361 253.566H338.315C337.86 253.112 337.633 252.657 337.633 252.203ZM331.041 240.382C331.041 239.7 331.268 239.018 331.723 238.563C332.177 238.109 332.632 237.881 333.314 237.881C333.769 237.881 334.451 238.109 335.132 238.563C335.587 238.791 335.814 238.791 336.269 238.791C336.496 238.791 336.724 238.791 336.724 238.563C336.724 238.336 336.951 238.109 336.951 237.881H338.315C338.315 238.791 338.088 239.245 337.633 239.7C337.178 240.155 336.724 240.382 336.042 240.382C335.587 240.382 334.905 240.155 334.223 239.7C333.769 239.473 333.314 239.245 333.087 239.245C332.859 239.245 332.632 239.245 332.405 239.473C332.177 239.7 332.177 239.927 332.177 240.155H331.041V240.382ZM337.406 247.883C336.724 248.111 335.587 248.338 334.223 248.565C333.314 248.793 332.859 248.793 332.405 249.02C332.177 249.247 331.723 249.475 331.723 249.702C331.495 249.929 331.495 250.384 331.495 250.611C331.495 251.066 331.723 251.521 332.177 251.975C332.632 252.43 333.087 252.43 333.996 252.43C334.678 252.43 335.36 252.203 336.042 251.975C336.724 251.748 336.951 251.293 337.406 250.611C337.633 250.157 337.633 249.475 337.633 248.565V247.883H337.406Z" fill="white"/>
<path d="M341.725 247.883C341.725 245.837 342.407 244.246 343.544 243.109C344.453 242.2 345.817 241.745 347.181 241.745C348.772 241.745 350.136 242.2 351.045 243.336C351.955 244.473 352.636 245.837 352.636 247.655C352.636 249.247 352.409 250.383 351.955 251.065C351.5 251.747 350.818 252.657 349.909 253.111C348.999 253.566 348.09 253.793 347.181 253.793C345.59 253.793 344.226 253.338 343.316 252.202C342.18 251.293 341.725 249.701 341.725 247.883ZM343.771 247.883C343.771 249.474 343.998 250.383 344.68 251.293C345.362 251.975 346.044 252.429 347.181 252.429C348.09 252.429 348.999 251.975 349.681 251.293C350.363 250.611 350.591 249.474 350.591 247.883C350.591 246.519 350.363 245.382 349.681 244.7C348.999 244.018 348.317 243.564 347.181 243.564C346.271 243.564 345.362 244.018 344.68 244.7C343.998 245.155 343.771 246.292 343.771 247.883Z" fill="white"/>
<path d="M151.457 282.435V281.071C150.775 282.208 149.638 282.663 148.274 282.663C147.365 282.663 146.456 282.435 145.774 281.981C145.092 281.526 144.41 280.844 143.955 279.935C143.501 279.026 143.273 277.889 143.273 276.752C143.273 275.616 143.501 274.479 143.955 273.57C144.41 272.661 144.865 271.979 145.774 271.297C146.456 270.842 147.365 270.615 148.274 270.615C148.956 270.615 149.638 270.842 150.093 271.069C150.548 271.297 151.002 271.751 151.457 272.206V266.523H153.503V282.435H151.457ZM145.319 276.752C145.319 278.344 145.547 279.253 146.229 280.162C146.911 281.071 147.593 281.299 148.502 281.299C149.411 281.299 150.093 280.844 150.775 280.162C151.457 279.48 151.684 278.344 151.684 276.98C151.684 275.388 151.457 274.252 150.775 273.57C150.093 272.888 149.411 272.433 148.502 272.433C147.593 272.433 146.911 272.888 146.229 273.57C145.547 274.252 145.319 275.161 145.319 276.752Z" fill="white"/>
<path d="M164.187 278.798L166.232 279.025C166.005 280.162 165.323 281.071 164.414 281.753C163.505 282.435 162.595 282.662 161.231 282.662C159.64 282.662 158.276 282.208 157.14 281.071C156.003 279.934 155.548 278.57 155.548 276.752C155.548 274.706 156.003 273.342 157.14 272.206C158.049 271.069 159.413 270.614 161.004 270.614C162.595 270.614 163.732 271.069 164.868 272.206C165.778 273.342 166.232 274.706 166.232 276.752C166.232 276.979 166.232 276.979 166.232 277.207H157.594C157.594 278.57 158.049 279.48 158.731 280.162C159.413 280.844 160.095 281.071 161.231 281.071C161.913 281.071 162.595 280.844 163.05 280.616C163.505 280.162 163.959 279.48 164.187 278.798ZM157.822 275.615H164.187C164.187 274.706 163.959 274.024 163.505 273.342C162.823 272.66 162.141 272.206 161.004 272.206C160.095 272.206 159.413 272.433 158.731 273.115C158.276 273.797 157.822 274.479 157.822 275.615Z" fill="white"/>
<path d="M179.644 282.435L173.506 266.523H175.78L179.871 278.116C180.099 279.026 180.553 279.935 180.781 280.617C181.008 279.708 181.235 278.798 181.69 278.116L186.009 266.523H188.055L181.917 282.435H179.644Z" fill="white"/>
<path d="M189.419 268.796V266.523H191.465V268.796H189.419ZM189.419 282.435V270.842H191.465V282.435H189.419Z" fill="white"/>
<path d="M194.193 282.435V266.523H196.239V282.435H194.193Z" fill="white"/>
<path d="M206.696 281.071C206.014 281.753 205.332 282.208 204.65 282.435C203.968 282.663 203.286 282.89 202.377 282.89C201.013 282.89 200.104 282.663 199.422 281.981C198.74 281.299 198.285 280.617 198.285 279.708C198.285 279.253 198.512 278.571 198.74 278.116C198.967 277.662 199.422 277.207 199.649 276.98C200.104 276.752 200.558 276.525 201.013 276.298C201.468 276.298 201.922 276.07 202.832 276.07C204.423 275.843 205.559 275.616 206.241 275.388C206.241 275.161 206.241 274.934 206.241 274.934C206.241 274.024 206.014 273.57 205.787 273.343C205.332 272.888 204.65 272.661 203.514 272.661C202.604 272.661 201.922 272.888 201.468 273.115C201.013 273.343 200.786 274.024 200.558 274.934L198.74 274.706C198.967 273.797 199.194 273.115 199.649 272.661C200.104 272.206 200.558 271.751 201.468 271.524C202.15 271.297 203.059 271.069 204.195 271.069C205.105 271.069 206.014 271.297 206.696 271.524C207.378 271.751 207.833 271.979 208.06 272.433C208.287 272.888 208.515 273.115 208.742 273.797C208.742 274.024 208.742 274.706 208.742 275.616V278.116C208.742 279.935 208.742 281.071 208.969 281.526C209.197 281.981 209.197 282.435 209.424 282.89H207.378C206.923 281.981 206.923 281.526 206.696 281.071ZM206.696 276.752C206.014 276.98 204.877 277.207 203.514 277.434C202.604 277.662 202.15 277.662 201.695 277.889C201.468 278.116 201.013 278.344 201.013 278.571C200.786 278.798 200.786 279.253 200.786 279.48C200.786 279.935 201.013 280.389 201.468 280.844C201.922 281.299 202.377 281.299 203.286 281.299C203.968 281.299 204.65 281.071 205.332 280.844C206.014 280.617 206.241 280.162 206.696 279.48C206.923 279.026 206.923 278.344 206.923 277.434V276.752H206.696Z" fill="white"/>
<path d="M218.062 282.435V266.523H220.335L228.746 279.026V266.523H230.791V282.435H228.518L220.107 269.933V282.435H218.062Z" fill="white"/>
<path d="M233.292 276.752C233.292 274.706 233.974 273.115 235.111 271.978C236.02 271.069 237.384 270.614 238.748 270.614C240.339 270.614 241.703 271.069 242.613 272.206C243.522 273.342 244.204 274.706 244.204 276.525C244.204 278.116 243.977 279.252 243.522 279.934C243.067 280.616 242.385 281.526 241.476 281.98C240.567 282.435 239.657 282.662 238.748 282.662C237.157 282.662 235.793 282.208 234.884 281.071C233.747 280.162 233.292 278.57 233.292 276.752ZM235.111 276.752C235.111 278.343 235.338 279.252 236.02 280.162C236.702 280.844 237.384 281.298 238.521 281.298C239.43 281.298 240.339 280.844 241.021 280.162C241.703 279.48 241.931 278.343 241.931 276.752C241.931 275.388 241.703 274.251 241.021 273.569C240.339 272.887 239.657 272.433 238.521 272.433C237.612 272.433 236.702 272.887 236.02 273.569C235.566 274.024 235.111 275.161 235.111 276.752Z" fill="white"/>
<path d="M249.431 282.435L245.112 270.842H247.158L249.659 277.661C249.886 278.343 250.113 279.252 250.341 279.934C250.568 279.252 250.795 278.57 251.023 277.661L253.523 270.614H255.569L251.25 282.208H249.431V282.435Z" fill="white"/>
<path d="M264.89 281.071C264.208 281.753 263.526 282.208 262.844 282.435C262.162 282.662 261.48 282.662 260.798 282.662C259.434 282.662 258.525 282.435 257.843 281.753C257.161 281.071 256.706 280.389 256.706 279.48C256.706 279.025 256.933 278.343 257.161 277.889C257.388 277.434 257.843 276.979 258.07 276.752C258.525 276.525 258.979 276.297 259.434 276.07C259.889 276.07 260.343 275.843 261.252 275.843C262.844 275.616 263.98 275.388 264.662 275.161C264.662 274.934 264.662 274.706 264.662 274.706C264.662 273.797 264.435 273.342 264.208 273.115C263.753 272.66 263.071 272.433 261.934 272.433C261.025 272.433 260.343 272.66 259.889 272.888C259.434 273.115 259.207 273.797 258.979 274.706L257.161 274.479C257.388 273.57 257.615 272.888 258.07 272.433C258.525 271.978 258.979 271.524 259.889 271.296C260.57 271.069 261.48 270.842 262.616 270.842C263.526 270.842 264.435 271.069 265.117 271.296C265.799 271.524 266.254 271.751 266.481 272.206C266.708 272.66 266.935 272.888 267.163 273.57C267.163 273.797 267.163 274.479 267.163 275.388V277.889C267.163 279.707 267.163 280.844 267.39 281.299C267.617 281.753 267.617 282.208 267.845 282.662H265.799C265.117 281.98 265.117 281.526 264.89 281.071ZM264.89 276.752C264.208 276.979 263.071 277.207 261.707 277.434C260.798 277.661 260.343 277.661 259.889 277.889C259.661 278.116 259.207 278.343 259.207 278.571C258.979 278.798 258.979 279.253 258.979 279.48C258.979 279.935 259.207 280.389 259.661 280.844C260.116 281.299 260.571 281.299 261.48 281.299C262.162 281.299 262.844 281.071 263.526 280.844C264.208 280.617 264.435 280.162 264.89 279.48C265.117 279.025 265.117 278.343 265.117 277.434V276.752H264.89Z" fill="white"/>
<path d="M283.531 282.436V281.072C282.849 282.209 281.712 282.891 280.348 282.891C279.439 282.891 278.53 282.663 277.848 282.209C277.166 281.754 276.484 281.072 276.029 280.163C275.574 279.254 275.347 278.117 275.347 276.98C275.347 275.844 275.574 274.707 276.029 273.798C276.484 272.889 276.938 272.207 277.848 271.525C278.53 271.07 279.439 270.843 280.348 270.843C281.03 270.843 281.712 271.07 282.167 271.297C282.621 271.525 283.076 271.979 283.531 272.434V266.751H285.577V282.663H283.531V282.436ZM277.393 276.753C277.393 278.344 277.62 279.254 278.302 280.163C278.984 281.072 279.666 281.299 280.576 281.299C281.485 281.299 282.167 280.845 282.849 280.163C283.531 279.481 283.758 278.344 283.758 276.98C283.758 275.389 283.531 274.253 282.849 273.571C282.167 272.889 281.485 272.434 280.576 272.434C279.666 272.434 278.984 272.889 278.302 273.571C277.62 274.253 277.393 275.162 277.393 276.753Z" fill="white"/>
<path d="M296.26 278.798L298.306 279.025C298.078 280.162 297.396 281.071 296.487 281.753C295.805 282.435 294.669 282.662 293.305 282.662C291.713 282.662 290.349 282.208 289.213 281.071C288.076 279.934 287.622 278.57 287.622 276.752C287.622 274.706 288.076 273.342 289.213 272.206C290.122 271.069 291.486 270.614 293.077 270.614C294.669 270.614 295.805 271.069 296.942 272.206C297.851 273.342 298.306 274.706 298.306 276.752C298.306 276.979 298.306 276.979 298.306 277.207H289.667C289.667 278.57 290.122 279.48 290.804 280.162C291.486 280.844 292.168 281.071 293.305 281.071C293.987 281.071 294.669 280.844 295.123 280.616C295.578 280.162 296.032 279.48 296.26 278.798ZM289.895 275.615H296.26C296.26 274.706 296.032 274.024 295.578 273.342C294.896 272.66 294.214 272.206 293.077 272.206C292.168 272.206 291.486 272.433 290.804 273.115C290.349 273.797 289.895 274.479 289.895 275.615Z" fill="white"/>
<path d="M314.673 276.298V274.479H321.492V280.39C320.356 281.299 319.446 281.754 318.31 282.208C317.173 282.663 316.036 282.663 314.9 282.663C313.309 282.663 311.945 282.436 310.581 281.754C309.217 281.072 308.308 280.162 307.626 278.799C306.944 277.435 306.716 276.071 306.716 274.479C306.716 272.888 306.944 271.524 307.626 270.16C308.308 268.796 309.217 267.887 310.353 267.205C311.49 266.523 313.081 266.296 314.673 266.296C315.809 266.296 316.946 266.523 317.855 266.751C318.764 267.205 319.446 267.66 320.128 268.342C320.81 269.024 321.038 269.933 321.265 270.842L319.446 271.297C319.219 270.388 318.992 269.933 318.537 269.478C318.082 269.024 317.628 268.569 316.946 268.342C316.264 268.114 315.582 267.887 314.673 267.887C313.763 267.887 312.854 268.114 312.172 268.342C311.49 268.569 310.808 269.024 310.581 269.478C310.126 269.933 309.899 270.388 309.671 271.07C309.217 271.979 308.99 273.116 308.99 274.252C308.99 275.616 309.217 276.753 309.671 277.889C310.126 278.799 310.808 279.48 311.717 279.935C312.627 280.39 313.536 280.617 314.673 280.617C315.582 280.617 316.491 280.39 317.4 280.162C318.31 279.708 318.992 279.48 319.446 279.026V276.071H314.673V276.298Z" fill="white"/>
<path d="M331.949 281.071C331.267 281.753 330.585 282.208 329.903 282.435C329.221 282.663 328.539 282.89 327.63 282.89C326.266 282.89 325.357 282.663 324.675 281.981C323.993 281.299 323.538 280.617 323.538 279.708C323.538 279.253 323.765 278.571 323.993 278.116C324.22 277.662 324.675 277.207 324.902 276.98C325.357 276.752 325.811 276.525 326.266 276.298C326.721 276.298 327.175 276.07 328.084 276.07C329.676 275.843 330.812 275.616 331.494 275.388C331.494 275.161 331.494 274.934 331.494 274.934C331.494 274.024 331.267 273.57 331.04 273.343C330.585 272.888 329.903 272.661 328.766 272.661C327.857 272.661 327.175 272.888 326.721 273.115C326.266 273.343 326.039 274.024 325.811 274.934L323.993 274.706C324.22 273.797 324.447 273.115 324.902 272.661C325.357 272.206 325.811 271.751 326.721 271.524C327.403 271.297 328.312 271.069 329.448 271.069C330.358 271.069 331.267 271.297 331.949 271.524C332.631 271.751 333.086 271.979 333.313 272.433C333.54 272.888 333.768 273.115 333.995 273.797C333.995 274.024 333.995 274.706 333.995 275.616V278.116C333.995 279.935 333.995 281.071 334.222 281.526C334.449 281.981 334.449 282.435 334.677 282.89H332.631C332.176 281.981 331.949 281.526 331.949 281.071ZM331.722 276.752C331.04 276.98 329.903 277.207 328.539 277.434C327.63 277.662 327.175 277.662 326.721 277.889C326.493 278.116 326.039 278.344 326.039 278.571C325.811 278.798 325.811 279.253 325.811 279.48C325.811 279.935 326.039 280.389 326.493 280.844C326.948 281.299 327.403 281.299 328.312 281.299C328.994 281.299 329.676 281.071 330.358 280.844C331.04 280.617 331.267 280.162 331.722 279.48C331.949 279.026 331.949 278.344 331.949 277.434V276.752H331.722Z" fill="white"/>
<path d="M336.724 268.796V266.523H338.77V268.796H336.724ZM336.724 282.435V270.842H338.77V282.435H336.724Z" fill="white"/>
<path d="M349.225 281.071C348.543 281.753 347.861 282.208 347.179 282.435C346.497 282.663 345.815 282.89 344.906 282.89C343.542 282.89 342.633 282.663 341.951 281.981C341.269 281.299 340.814 280.617 340.814 279.708C340.814 279.253 341.042 278.571 341.269 278.116C341.496 277.662 341.951 277.207 342.178 276.98C342.633 276.752 343.088 276.525 343.542 276.298C343.997 276.298 344.452 276.07 345.361 276.07C346.952 275.843 348.089 275.616 348.771 275.388C348.771 275.161 348.771 274.934 348.771 274.934C348.771 274.024 348.543 273.57 348.316 273.343C347.861 272.888 347.179 272.661 346.043 272.661C345.134 272.661 344.452 272.888 343.997 273.115C343.542 273.343 343.315 274.024 343.088 274.934L341.269 274.706C341.496 273.797 341.724 273.115 342.178 272.661C342.633 272.206 343.088 271.751 343.997 271.524C344.679 271.297 345.588 271.069 346.725 271.069C347.634 271.069 348.543 271.297 349.225 271.524C349.907 271.751 350.362 271.979 350.589 272.433C350.817 272.888 351.044 273.115 351.271 273.797C351.271 274.024 351.271 274.706 351.271 275.616V278.116C351.271 279.935 351.271 281.071 351.499 281.526C351.726 281.981 351.726 282.435 351.953 282.89H349.907C349.453 281.981 349.225 281.526 349.225 281.071ZM348.998 276.752C348.316 276.98 347.179 277.207 345.815 277.434C344.906 277.662 344.452 277.662 343.997 277.889C343.77 278.116 343.315 278.344 343.315 278.571C343.088 278.798 343.088 279.253 343.088 279.48C343.088 279.935 343.315 280.389 343.77 280.844C344.224 281.299 344.679 281.299 345.588 281.299C346.27 281.299 346.952 281.071 347.634 280.844C348.316 280.617 348.543 280.162 348.998 279.48C349.225 279.026 349.225 278.344 349.225 277.434V276.752H348.998Z" fill="white"/>
<defs>
<linearGradient id="paint0_linear" x1="76.3687" y1="0" x2="76.3687" y2="133.381" gradientUnits="userSpaceOnUse">
<stop stop-color="#BAFE4F"/>
<stop offset="1" stop-color="#00411B"/>
</linearGradient>
<linearGradient id="paint1_linear" x1="416.915" y1="273.856" x2="416.915" y2="407.237" gradientUnits="userSpaceOnUse">
<stop stop-color="#BAFE4F"/>
<stop offset="1" stop-color="#00411B"/>
</linearGradient>
<linearGradient id="paint2_linear" x1="244.413" y1="58.1768" x2="244.413" y2="349.988" gradientUnits="userSpaceOnUse">
<stop stop-color="#BAFE4F"/>
<stop offset="1" stop-color="#00411B"/>
</linearGradient>
<linearGradient id="paint3_linear" x1="244.413" y1="58.1768" x2="244.413" y2="349.988" gradientUnits="userSpaceOnUse">
<stop stop-color="#BAFE4F"/>
<stop offset="1" stop-color="#00411B"/>
</linearGradient>
</defs>
</svg>
